<svg xmlns="http://www.w3.org/2000/svg" width="1920" height="1080" viewBox="0 0 1920 1080">
  <g id="Layer_2" data-name="Layer 2">
    <g id="Layer_1-2" data-name="Layer 1">
      <g>
        <path d="M1920,1080H0V0H1920Z"/>
        <path d="M1254.09,1046.16c1.08-10.56-11.1-7-16.59-13.51,0,2.78-.34,4.12.06,5.15,3.64,9.28,13.46,15.4,13.5,26.56,0,.48,1.37.9,2,1.44,1.54,1.34,3.34,2.52,4.51,4.15,2.31,3.21,4,7.06,6.4,10h7.8C1268.58,1067.3,1264.07,1055.94,1254.09,1046.16Zm22,30.95-2.66,2.89h3.4C1276.59,1079.12,1276.35,1078.17,1276.08,1077.11Zm522.69-89.89c-4.64-2.42-7.63-8-11.48-12.34-4,1.67-9,4.9-14.49,5.8-8.36,1.39-17,1-25.51,1.73-3.57.3-7.08,1.43-10.57,2.33-5,1.3-11.22,5.26-14.69,3.57-6.71-3.29-12.55-1.71-18.73-.81-3.45.51-6.72,2.26-10.1,3.4-4.4,1.47-8.79,2.87-14.16,4.64-.3,8.4-9.82,9.88-15.14,14.57l-7-3c-1.15,2.95-2,5-3.3,8.49-1.55-4-2.32-6.07-3.39-8.87-1.35,1.84-2.23,3-2.36,3.22-7.42-2.78-14-4.94-20.32-7.72-5.22-2.31-11.54-3.7-12.06-11-3.29-.73-4.94,7-7.83,1-1.19,2.18-2.2,4.06-3.18,5.84-8.75-4.58-3.12-10-1.56-14.35-4.84-1.8-9.41-3.53-13.73.39a11,11,0,0,1-5.35,2.71c-3.81.64-8.13,1.84-11.47.68-4.87-1.7-8.78-6-13.58-7.93-6.56-2.69-13.49-5.35-20.44-6s-8.21-1.11-7-8.29c.35-2.19-.08-5.35-1.45-6.87-5.8-6.31-15.1-10.16-13.71-21.26.17-1.24-1.73-2.86-2.83-4.15-6.5-7.5-12.83-14.88-7.61-26,.88-1.88-.21-4.64-.23-7,0-2-.43-4.25.32-5.94,2.22-4.88,4.92-9.56,6.46-12.45-3.28-3.42-5.46-5.67-7.64-7.94-2.57-2.71-.23-5.19,0-7.89.57-7.31,3.81-15.08-1.8-22.13-1.17-1.46-.81-4.13-1.24-6.23-.7-3.44-1.43-6.86-2.22-10.28a29.62,29.62,0,0,0-1.72-6c-2.8-5.71-.62-13.95-9.13-16.86-2.76-.94-4.9-3.68-8.29-6.37l8.16-2.54c-.3-3.3-.61-6-.79-8.71-.4-5.86-.74-11.72-1.17-18.52l5.52.7c1.64-8.12,7.72-12.66,14.15-17,8.07-5.52,16-11.29,23.92-17,1.54-1.11,2.8-3,4.49-3.43,11.23-3.16,14.15-12.16,14.62-21.94.39-8.83,5.44-14.69,10.53-20.7,3.74-4.39,8.74-7.89,11.8-12.68,2.42-3.77,2.76-8.9,4-13.42-.85-.34-1.69-.68-2.54-1-1.8,9.63-7.91,15.46-15,21.45a31.4,31.4,0,0,0-11.43,25.94c.18,4.78-3.14,11.72-7.07,14.23-8.07,5.19-16.2,9.3-22.83,17-5,5.8-13.62,8.64-20.89,12.23-1.84.92-5.84.61-7-.7-6.06-7.19-12.34-14.44-17-22.56-4.11-7.17-5.8-15.51-.6-23.45-2.42-1.86-4.6-4.57-7.34-5.41-5.33-1.64-8.73-4.51-9.82-9.9-.87,2.57-1.75,5.16-2.71,8-1.54.3-3.38.64-6.23,1.2l3.41,6.35,3.89-2.86a68.82,68.82,0,0,1,3.2,7.16c1.57,5,4.54,10.37,4,15.23-1.47,12.6,5.39,22.13,12.11,30.2,9.19,11,10.09,14.16-.73,22.8-2.5,2-3.23,7-3.42,10.76-.09,2,2.74,6.07,4.08,6,7.55-.45,6.74,4.79,7.57,9.39a29.34,29.34,0,0,0,2.89,7.92c2,4.13,4.58,8,6.51,12.23.34.75-1,3-2,3.47a97.68,97.68,0,0,1-9.9,3.18c.65,4.56,1.33,9.35,2.29,16.08,4-2.11,7.15-3.84,11-5.86,7.6,3.08,8.64,9.07,2.25,20.22,6.31,2.59,1.88,4.75-.26,7.25-1.56,1.81-3.82,3.78-4,5.82-.38,4.06.47,8.23.82,12.34-3-1.12-5.73-3.08-5.43-4.2,2.07-7.85-2.79-7.46-8.63-7.14,3.47,4.19,7.08,7.78,9.67,12,1.31,2.15,2,5.94.92,8-1.65,3.23-5,5.59-8,8.69,7.44,6,5.15,13.64,4.32,20.12-.79,6.18,1,4.84,4.38,3.21,3.23-1.56,5.2-1.18,7.12,2.48,2.68,5.09,6.63,9.5,9.58,14.5,2.36,4,4,8.43,6,12.68l-1.9.84c-1.26-.3-2.52-.6-3.77-.92,1.37,2.48,3.23,4.45,5.25,4.68,6.9.75,4.08,5.59,3.52,8.75-.21,1.09-4,1.54-5.51,2.05-4.47,3.89-8.45,8.13-13.18,11.21s-10.26,5.2-15.55,7.48c-.94.41-2.43-.61-3.68-.68-5.09-.25-8.94.54-10.33,6.89-.62,2.8-4.49,5.09-7.22,7.18-3.23,2.46-6.81,4.41-10.57,6.81-1.63.34-5.52.23-6,1.45-2.57,6.63-6.86,5.3-11.16,3-4.37,3.62-4.62,13.14-12.62,8.15,1,5.26,2.14,10.65,3,15.06-6.33,2.08-11,3.79-15.68,5.09a33.59,33.59,0,0,1-7.59.73c-7.7.25-15.42.32-23.12.62a7.65,7.65,0,0,0-4.09,1.3c-7,5.07-14.74,5.84-21.86,5-4.3,4-9.17,6.8-11.52,11-3.7,6.63-9.07,7.53-13.61,7.51-1.56,3.19-2.54,6.52-4,9.11h27.7c-1.43-4.94,1.28-9.85,7.25-10.16,1.39-.06,2.93,1.75,4.3,2.84.49.39.66,1.22,1,1.84.68-.53,1.73-.92,2-1.6,1.94-5.48,7.81-9.71,13.69-10.12a45.58,45.58,0,0,0,10.28-1.73c4.86-1.52,8.67-1,11.17,5.28,3.21-8.51,8.45-8.08,14.33-5.32,3.55,1.67,6.48,2,9.75-1.37,2-2,5.67-2.44,9-3.76,0-3.66-.52-8.15.23-12.41.36-2,3.14-5.24,4.79-5.22,5.65.07,6-4.79,8.73-6.44q8.54-1.44,17.07-2.9c-.35-.48-.73-1-1.08-1.46,2.62-2.12,5-4.64,7.94-6.29,3.83-2.18,7.87-3.21,8.41-9,.49-5,5.66-4.81,9.34-4.52s5.67-.55,8.73-3.1c4.3-3.57,10.84-4.29,16.12-6.86,10.93-5.31,21.78-3.47,32.85-.77,1.86.45,4.15-.83,6.23-1.33,5.71-1.39,8.77,1.27,8.94,7.23.1,3.19,1.11,6.37,1.71,9.56.58-.11,1.18-.25,1.78-.36-.22-1.44-.45-2.87-.78-5a31.4,31.4,0,0,0,21.63-.58c4.3-1.56,11.36,2.29,16.29,5.2,5.16,3.08,9.24,7.94,13.78,12,.73-1.52,1.43-2.95,2.12-4.38,2.16,1.52,4.3,3.06,6.82,4.85,8.13-3.46,18.82,8.32,19.23,21,.89-4.77,1.77-9.54,2.75-14.72,4.62.71,9.89,1.71,15.23,2.27,1.52.17,4.05-.49,4.64-1.56,2.61-4.92,5.24-9.45,12.49-8.39-1.24-2.22-2-3.48-2.78-4.94.9-.15,1.52-.23,2.12-.36,4.66-1.11,9.37-.36,14.22-3,3.85-2.08,10,.49,15,0a21.41,21.41,0,0,0,9.77-3.91c4.19-3,15-6.16,18.41-4.1-4,3.18-6,6.5-.3,9.92.58.36.26,2.35.22,3.57-.07,4.75-.24,9.5-.34,14.25,0,2.15,0,4.29.12,6.43.13,3.4.75,6.85.41,10.2-.34,3.15-1,6.63-2.72,9.16-2,3-3.14,4.89-.89,8.53,1.58,2.5,1.75,6.44,1.28,9.54-.09.6-.16,1.21-.2,1.82h15.65a13.72,13.72,0,0,0-.48-7.6c-.73-2.24-.11-4.91-.11-8.76-5.07-6.53-4.12-25.48,2.53-29.78-1.09-.59-3.19-1.43-3.12-1.73,1.38-5.77-2-9.54-5.08-13.6-.57-.77.41-2.74.75-4.15,1.59-6.89,7-10.56,11.9-15,6-5.43,7.87-6.27,15.14-2.42,5.15,2.7,7.61,1.5,8.75-3.72,4.12-.23,8.29-1.33,11.93-.4a28.88,28.88,0,0,1,12.38,6.33c3.53,3.33,7.38,4.76,10.68,1,2.82-3.23,5-7,7.22-10.22C1809.72,989,1803.43,989.66,1798.77,987.22Zm-369.85,51.59c-1.56-1.39-3.73-2.48-4.56-4.2-2.22-4.59,1.63-4.4,6.22-6.45C1429.84,1032.88,1429.39,1035.85,1428.92,1038.81ZM1583,990l5.5-3.51,4.21,9.79C1589.09,993.92,1586.58,992.31,1583,990Z" fill="#c69432"/>
        <path d="M202.05,1080h-58a37.46,37.46,0,0,0-9.44-2.38c-2.37-.29-4.64-1.54-8.44-2.86l21.89-11c2.74,3,6.27,7,10,10.8a6.56,6.56,0,0,0,3.79,1.88c6.71.62,13.45.87,20.15,1.45S195.38,1079.21,202.05,1080Z" fill="#c69432"/>
        <path d="M385.38,1071.21c-.39.41-.79.81-1.16,1.22a36.78,36.78,0,0,1-4.74-4.49c-2.68-3.58-6.27-3.19-8.26-.5-3.12,4.22-6.78,8.21-9.7,12.56h-6.83a6.77,6.77,0,0,0-.47-1.13c-1.43-2.72-1.46-4.77-5.41-4.43-3.28.28-6.74-.84-10.08-1.52-6.78-1.35-6.78-1.41-10.6,3.87.59-7.29-4.82-4.94-8.15-5.69s-4.2,1.16-6.14,4.06a36.72,36.72,0,0,0-2.56,4.84H289.13c.95-2.28,1.89-4.57,3-6.76.86-1.63,2.8-2.74,4.3-4,1.28-1.09,3.4-1.8,3.83-3.12,1.73-5.28,4.3-6.31,10.11-5.43,6,.89,11.57-4,18.51-3.71,4.34.2,8.91-5,13.13-7.69-1.42-4.75-2.59-8.92-4-13-.85-2.52-2-4.94-3-7.44-.77-2-1.11-4.28-2.12-6.16-3.31-6.12-6.84-12.13-10.29-18.18a.9.9,0,0,1-.13-.62c1.31-5.31-2.86-6.65-6.15-8.88s-6.34-5-9.46-7.63c-2.46-2.06-4.58-4.79-7.38-6.18-6.11-3-11-6.74-14.24-13-2.76-5.32-2.27-8.34,3.34-10.12-.8-7.1-4.65-9.49-11.38-7.82-2.25.57-4.92,1.45-6.91.77-4.83-1.65-9.39-4.13-14.07-6.29,2.07-6.54-3.9-6.37-7.1-8.53-1.57-1-3.13-2.14-4.65-3.28-6-4.45-11.91-9-17.92-13.38a4.64,4.64,0,0,0-2.95-.93c-6.56.78-11.34-2.35-15.55-6.75-2.82-2.95-5.41-6.06-8.1-9.12-3.25-3.69-6.66-7.25-9.73-11.1-3.92-5-4.67-12.51-12.07-14.79-.75-.24-1.62-2.38-1.32-3.25a57.78,57.78,0,0,1,4.15-9.39c2-3.51,4.34-6.81,6.41-10-1.65-2-2.84-3.51-4-5a57.1,57.1,0,0,0,1.41-19.2c-.64-6.31,2.8-14.74-6.76-16.58,0-2.86,0-5.07,0-7.29,0-3.92-.94-8.09,0-11.76,1.65-6.16,4.56-12,6.7-18,.3-.84-.51-2.63-1.35-3.25-4.87-3.58-2.12-5.11,1.44-7.11a41.82,41.82,0,0,0,7.22-5.86c3.73-3.44,7.34-7,11-10.56-2.53,7.57-4.71,15.25-7.7,22.63a48.42,48.42,0,0,1-7.27,12.21c-4.22,5.24-4.32,10.61-2.31,16.53,1.37,4.07.87,9.54,7.65,9.46.41,0,1.43,3.78,1.16,5.68-.88,6.87-.84,7.21,5.64,10,6-6,6.66-9.71,3.62-16.4-1.2-2.63-1.31-5.76-2.23-10.08,6,2.38,9.37,3.28,7,9.39-1.48,3.89,0,8.88,0,13.37a13.25,13.25,0,0,1-.92,5.67c-2.24,4.59-5.3,8.81-7.16,13.53-.75,1.87,1.26,4.67,1.2,7-.09,4.11.66,9.41-1.54,12.1-7.32,8.92-5.84,16.77.59,25a42.16,42.16,0,0,1,4.75,6.59c1.24,2.46,1.82,5.26,2.91,8.64,3.23,2.59,7,6.31,11.4,8.94a113.66,113.66,0,0,0,15.89,7.3c3.17,1.28,6,1.88,6.1,6.56.06,2,3.63,4.26,6,5.75.9.56,3-.72,4.51-1.17a73.21,73.21,0,0,1,6.67,5.69c2.18,2.31,3.53,5.52,5.91,7.55,2.54,2.14,5.88,4.77,8.85,4.74,9.13-.14,18.48-.89,25.5-8a10,10,0,0,0,2.43-5.74c.47-4.94,2.21-8.42,7.13-10.47,4.61-1.89,9.26-3.26,5.39-11.06-2.1-4.22,1.3-11.17,2.22-16.9l2.54.58c-.49,1.69-.94,3.4-1.49,5.07-1.48,4.4-4.62,8,.49,13.17,3.18,3.23-.94,9.76-5.16,10.7-8,1.73-8,8.91-10.54,13.64-4.13,7.68-6.65,16.39-8.64,25-.88,3.72.09,9,2.37,12,1.74,2.28,6.8,3.25,9.82-1.42.81-1.24,4.08-.85,8.17-1.54-2.1,2.46-3.59,4.18-5.92,6.93a31.27,31.27,0,0,0,4.34,5.89c.4.36,3.35-2,4.32-2.65l17.56,12.33c.36.24.92.41,1,.73,2.16,5.88,3.9,11.92,6.46,17.62,2.36,5.25,5.65,10.08,8.37,15.19a46.45,46.45,0,0,1,2.91,7.21c.66,2,.44,4.38,1.47,6,2,3.18,1.84,5.41-1.05,7.87-1,.83-1.81,3.51-1.34,4,1,1,3,1.22,5.28,2,.17,2.5.41,6.07.58,8.47,7.37.56,14.39.56,21.13,1.92C381.7,1065.14,383.39,1068.94,385.38,1071.21Z" fill="#c69432"/>
        <path d="M648.7,914.38c-2.76.16-5.52.29-9.92.51-.34-7.4-.66-14.55-1-21.71-2.26,4-9.39,5.39-6.07,12.4.79,1.67-.49,4.52-1.28,6.66-.94,2.61-3.45,5.09-3.34,7.54.26,6.34-3,8.22-8.38,9.86-9.52,2.93-14.76,11.43-20.9,18.44-6.29,7.19-11.85,10.37-17.79,8.53.49.71,1.82,1.18,1.82,1.65,0,3.19,1,7.53-.73,9.33-2.57,2.78-5.84.94-7.62-2.66a4,4,0,0,0-3-1.81c-3.62.1-10,9.26-8.54,12.55,3,6.57-1.34,11.38-5.38,13.47-5,2.57-7.26,6-9.09,10.57-3.55,8.79-9,16.26-18.42,18.59-5.82,1.45-7.16,4.55-7.44,9.45-.13,2.31-.41,4.6-.64,6.89l-1.29-1.12-8.68,8.19c-.45,3.23-.15,5.78-1,6.27-5,2.8-10,6.53-15.39,7.27-13.54,1.82-27.19,2.27-37.43,13.28-1.13,1.22-3.36,1.72-5.14,1.93-5.15.58-10.33.77-15.48,1.3a15.8,15.8,0,0,0-4.68,1.46c-2.33,1-4.58,2.27-6.85,3.44-1.62.82-4,1.27-4.74,2.61-.13.25-.27.49-.41.73h44.29a16.91,16.91,0,0,1,1.78-.83c2.93-1.18,7-.78,9.06-2.68,5-4.66,10.1-3.53,16-1.69-.13,1.44-.26,3-.32,3.79a72.28,72.28,0,0,1,8.62.06c5.52.69,8.79-3,11.87-6.33,1.88-2,2.37-5.3,3.44-8,.32-.79.34-2.2.82-2.37,7.78-2.68,6-10,7.55-15.81,4.46.62,7.91,1.43,11.8-3.14,4.09-4.79,9.93-10,18.14-7.06l-2.46.94c10.18,10.69,20.68,21.71,30.88,32.44,0-.14.32-1.47.67-3,.91.4,1.68.49,2,.9,2.55,3.65,4.9,7.44,7.57,11a18.41,18.41,0,0,0,1.56,1.82h32.31a17.64,17.64,0,0,0-1.46-1.41,34.9,34.9,0,0,0-7.4-4.64c-6.85-3.38-13.8-6.55-20.71-9.82a1.39,1.39,0,0,1-.55-.36c-2.63-3.87-5-8-8-11.57-3.25-3.9-7.18-7.21-10.61-11-2-2.16-3.61-4.65-5.36-7-2.76-3.74-5.48-7.51-8.28-11.23-1-1.3-2.83-2.44-2.93-3.72-.37-5.95-2.87-12.64,4.75-16.45.92-.47,1-2.61,1.54-4,.72-1.82,1.51-3.62,2.24-5.39,2.95,1,5.07,1.8,7.08,2.54,0-3.85-.43-7.31.09-10.58,1.52-9.5,7.2-14.68,16.79-16.49,1.47-.28,2.63-2.23,4-3.38,3-2.63,5.6-6.33,9.09-7.62,7.47-2.76,14.48-5.9,18.24-13.24,2.14-4.17,4.67-5.85,9.41-6.26,3.23-.28,9,.87,8.63-5.58C641.56,926,642,919.47,648.7,914.38ZM574.25,980c-.47,1.65-3.23,2.93-5.24,3.64-.58.21-3.19-2.5-3-3.25,1-2.91,2.67-5.56,4.09-8.32,1,.15,2.05.3,3.07.47C573.65,975.05,574.89,977.81,574.25,980Z" fill="#c69432"/>
        <path d="M885.1,947a12.57,12.57,0,0,1-1.05.75c-10.5,6.78-10.69,9-1.39,18.69-6.16,7.72-3.4,16-.68,23.85,2.13,6.14,4.29,11.23.06,17.86-3.64,5.71-4.21,13.32-7.4,19.41-1.65,3.11-3.55,7.19-8.73,7.92-6.39.88-7.2,7.78-9.64,12.25-1.89,3.47-.9,8.43-1.65,12.66a33.4,33.4,0,0,1-2.82,7.73c-1.16,2.65-2.63,5.19-4.15,8.15,2.61,1.23,4.36,2,6.12,2.86-.06.3-.1.6-.16.9H832.55c3.27-4.71,3.45-10.7,4.79-15.93s2.33-9.8,6.67-13.31c1.18-1,1.56-3,1.22-5.19l-2.14,1.75-1.56-1.69c3.59-3.36,6.69-7.62,10.87-9.9,9.51-5.12,13.79-12.77,14.73-23.19.22-2.59,2.27-5.62,4.39-7.31,3.46-2.78,2.41-5.63,1.71-8.92-1.91-8.9-3.66-17.86-5.59-27.46,2.36.41,3.62.62,4.86.85q.57-.71,1.11-1.41c-2.93-3.19-5.88-6.39-9.66-10.48a97.17,97.17,0,0,0,6.07-8.19c2.52-4.11,5.17-8.3,6.61-12.83.6-1.86-1.78-4.66-2.89-7.21,5.3,1,5.56-1.17,5-6.26-.37-3.6,2.93-7.62,4.74-11.4,1-2.1,2.94-3.94,3.34-6.1.71-3.87-1.3-8,3.66-11.17,1.67-1.09.73-7.25,0-10.86-1-4.62-2.87-9-4.43-13.5l12.77,15.43c-3.9,15.31-7.64,29.92-11.51,45C891.24,933.3,890.72,942.54,885.1,947Z" fill="#c69432"/>
        <path d="M885.89,869.83l-.11.14.26.32C886,870.14,886,870,885.89,869.83Z" fill="#c69432"/>
        <path d="M527.32,141.43l.24.17.15-.17ZM623,717.27a14.3,14.3,0,0,0-1.16-1.85l-1.76,1.6,3.84,3.87A31.39,31.39,0,0,0,623,717.27Zm.92,3.62v0h0Zm212,9.84c-7.3-5.18-13.91-11.34-20.76-17.14-4-3.42-7.95-7-12.33-10.82-3.14,5.58-9.05,3.15-14.88,1.85-3.36-.74-7-.63-10.18-1.71-5.58-1.86-11.58-3.49-16.24-6.85-4.13-3-13.94-5.49-20.34-1.75l18.61,9.91c-6.32,3.18-12.88,6.23-19.17,9.79-1.83,1-3,3.42-4.23,5.33s-2.26,4.2-3.51,6.22c-2.68,4.3-7.23,7-6.06,13.93.92,5.48.93,14.11-5.35,16.77-8.63,3.67-11.24,11.88-17.05,17.52-.62.61-1.31,1.15-1.86,1.81-2.48,3-4.92,6.06-8.21,10.12-12.93-1.13-13.14-.84-24.59-9.15-7.17-5.21-13.57-11.48-20.41-17.16-3.46-2.87-4.85-6-5.28-10.83-.85-9.44-5.16-18.22-6.08-27.94-.65-6.87.39-13,6.25-17,2.17-1.46,3.55-4.22,5-6.56,3.26-5.2,5.57-11.27,9.74-15.56,3.72-3.82,9.31-5.95,14.27-8.42,4.44-2.2,7.67-4.75,5.86-10.44l4.87,2.1c1.31-2.14,2.39-3.91,3.38-5.55,2.78,1,5.44,1.58,7.51,3a15.41,15.41,0,0,1,5.24,5.65c2.23,4.66,4.78,7.72,10.53,5.68.66-.23,1.81,1,2.74,1.46,3.28,1.79,6.71,3.37,9.81,5.43a10.42,10.42,0,0,1,4,4.59c2.36,6.31,9.15,9,14.22,5.29l-14.54-18.58c-9.18-3.08-11.2-4.35-19.66-13.22a8.9,8.9,0,0,0-2-1.6c-6.59-3.63-11.12-8.38-8.09-16.55,1-2.67,3-5,5.18-8.58l-8,5.56c-5.37-3.42-12.16-15-13.06-21.32-1.83-12.8-2.52-26-11.05-36.8-1.81-2.29-3.84-4.41-5.78-6.61l-1.45,1.1c9.09,11.37,11.87,25.14,13.32,38.75,1,9,2.71,16.76,9,23.18,2.85,2.89,6.3,5.2,2.53,9.94-2.3,2.88-3.2,7.12-5.87,9.43-6,5.16-12.2,10.43-19.25,13.66-2.45,1.12-7.52-3.83-11.55-5.66-1.89-.86-4.23-.69-6.23-1.38-5.11-1.74-12.13,1.21-14.72-6.71-3.09,7-6.34,7.4-13,3.92a62.07,62.07,0,0,0-15.55-5.4c-3.92-.84-8.32.52-12.19-.41-4.3-1-7.92-.65-12.24.15-6.07,1.12-12.6-.23-18.93-.57-1.44-.07-3-.81-4.28-.41-5.62,1.82-10.91,5.26-17.22,1.95-.94-.5-2.88.61-4.23,1.25-8.32,3.91-15.19,3.07-21.47-3.17-1.78-1.76-2.74-4.32-4.11-6.49-3.51-5.56-11.69-8.51-15.26-5-.73-1.4-1.09-3-2.09-3.84a115.54,115.54,0,0,0-10-7.63c-1.37-.93-3.34-.95-4.84-1.74-4.82-2.53-9.38-5.63-14.37-7.73-3.54-1.5-7.68-1.49-11.42-2.62-4.68-1.41-9.34-4.86-13.78-4.51-3.86.3-7,.46-9.12-2.35-3-4-5.21-8.69-7.76-13.07,7-3.82,5.92-10.43,4.32-13.95-3-6.56-7.41-12.05-6.32-20.14.48-3.62-1.79-7.71-3.18-11.45a8.87,8.87,0,0,0-2.16-3c2.34-4.64,4.58-9.08,7.09-14.08l9.21.79c-2.77-3-6.26-4.45-9.42-6.4-2.52-1.55-6.85-4.26-6.55-5.6,2.18-9.75-5.32-16.92-6.11-25.76-.16-1.79-1.69-4.3-3.24-5-14-6.13-20.32-16.85-17.28-33.21a7.22,7.22,0,0,0-1.48-5.43c-3.73-4.2-2.1-7.92.3-11.77.67-1.07,2.18-2.28,2-3.14-1.6-7.19,6.5-10.24,6.84-16.55.14-2.6,1.39-5.39.76-7.71-1.34-4.93,1.37-13.64,5.13-13.36,5.34.41,6.13-1.48,4.63-6-.49-1.51-.07-3.32-.07-5l-5.18,1.73-1.32-1.72c3.28-4,6.06-8.65,10-12,6.89-5.87,11.18-13.26,14.48-21.36.83-2.05,1.58-5.75.57-6.65-4-3.54-1-6.28.41-9,3.14-6.12,5.27-12.49,2.9-19.17-1.18-3.33-1.1-5.1,1-8.22,2.6-3.78,3.18-9,5-14.66l-5,2.78c3.65-5.69,2.94-9.46,0-14.34-1.45-2.37-3.87-4.8-4.63-7.85a45.57,45.57,0,0,0-14.17-23.49,6.13,6.13,0,0,1,1.85-10.21,35,35,0,0,0,5.36-3c3.88-2.54,7.47-5.62,11.58-7.66,5.35-2.66,11.28-4.15,16.61-6.84A48.39,48.39,0,0,0,453,221c1.52-1.4,1.43-4.42,2.8-6.12,4-5,8.41-9.69,13.4-15.34l-5.9-1.07c3.18-4,7.27-7.74,9.48-12.36,2.3-4.8,10.22-10.52,14.53-7.73,5.76,3.73,9.94.37,14.4-1.71,7.87-3.66,15.52-7.78,23.72-11.95l-1-2.5c2.05-1.15,5.85-3,5.73-3.27-2.2-5.61,4.34-12.66-2.56-17.35-2.95,3.25-5.6,7.17-11.31,4.47.09,1.24-.1,2.21.26,2.89,2.17,4.14,3.35,7.6-3.64,6.91a2.25,2.25,0,0,0-1.61.93c-5.09,6.95-11,6.18-17.88,2.44l4.73,5.16c-10.87,2.87-13.15,2.24-15.27-4.61l-3.78,9.7-7.72-3.4c-.75,2.46-.9,5.25-2.29,7.12-4.63,6.24-4.44,15.33-11.87,19.92-.66.41-.5,2-.9,3-1.22,3-2.35,6.14-3.83,9.06-1.71,3.39-4.09,5.67-8.5,4.23-.75-.24-2.12,1.44-4.27,3l6-.58,0,1.73h-8.07c-3.75,1.55-6.78,3.83-9.81,3.82-5.3,0-7.66,1.31-7.59,7,0,3.89-14,11.37-16.87,8.81-7.78-6.91-15.86-13.89-21.93-22.22-6.21-8.53-10.17-18.71-15.17-28.14-1.06-2-1.9-4.54-3.61-5.71-4.54-3.12-6.6-6.66-4.13-11.81-2,.15-4.2.85-6,.28-1.24-.4-2.89-2.73-2.68-3.9.73-4.18,1.78-8.26,6.5-10.41,1.34-.6,1.47-3.88,2.56-7.15l-8.4,2.63c7.39-6.68,4-15.09,3.79-22.22-.2-7.77-3-15.49-4.87-24.28-.43,7.06-.82,13.41-1.24,20.42-3.92-4.16-7.7-8.23-11.57-12.22-.53-.55-1.58-.55-2.23-1-2-1.42-3.93-2.94-5.89-4.43.41-.62.81-1.24,1.21-1.86-4.34.52-10,2.53-6.36-5.47.4-.91-1.31-3.17-2.5-4.32a124.62,124.62,0,0,0-9.58-8.19c-1.5-1.17-3.4-2.51-5.13-2.54-6.85-.11-7.06-4.54-6-9.22,1.72-7.94,4.05-15.75,5.93-23.66a17,17,0,0,0,.11-5.79C305,31.82,308,22.31,311.85,13.3c1.7-4,3.28-6.86,1.49-11.28a14.85,14.85,0,0,1-.66-2H283.56a7.12,7.12,0,0,0,.91,5.54c2,3.18.87,5.43-1.17,8.42-2.16,3.16-3,7.36-3.86,11.23-.63,2.92.89,7.52-.67,8.81-5.17,4.27-.66,5.32,1.66,7.1,1,.74,2.4.89,4.91,1.76-5,2.34-8.93,3.67-5,9.33,1.83,2.66-1.24,6-4.78,5.74-7.16-.43-14.24-1.81-20.93,2.48-.91.58-3.54-.8-4.93-1.86s-2.27-2.87-3.08-4l-6.9,6c-2.79-1.67-4.82-2.79-6.73-4.06-4.1-2.73-8.77-5-12-8.49-2.59-2.83-4.14-4.09-8.37-3.65a15.91,15.91,0,0,1-11.43-4c-3.21-3.17-4.4-8.4-10.49-7.57-.53.07-1.39-.59-1.72-1.14-4.44-7.35-13.06-8-19.69-11.58-3.24-1.74-7.08-1.71-8.5-6-.61-1.86-1.52-3.61-2.29-5.41l-2.23,2-4.67,3.86c-3.38-1.59-6.84-3.27-10.35-4.84-4.85-2.17-9.55-5.09-14.64-6.22-5.39-1.2-8.08-1.72-9.75-3.51h-17c-3.71,2-8.07,2.36-13,2.6C76.48,3.09,66.25,5.84,56,7.73a15,15,0,0,0-5.46,2c-7.79,5.2-12.66,4.56-18.22-2.58a10,10,0,0,0-2.89-2.58C26.71,3,24,1.52,21.08,0h-4.3c.19,1.61.41,3.41.62,5.21-3.58,3.32-5.54,7.46-8,11.27C5.83,21.92,7.9,31.28,0,33.75V46.86c3.6-5.73,7.5-11.27,10.92-17.1,6.26-10.65,16.92-12.4,26.32-4,6.5,5.79,8.85,5.79,15.81.43a11.69,11.69,0,0,1,4.76-1.77c5.53-1.08,11.18-1.66,16.62-3,5.78-1.48,11.44-5.33,17-5.11,6.89.27,10.39-2.4,13.55-7.5C108.45,3.2,114,2,116.66,7.52c4.39,9,13.13,9.29,20.09,12.78,7.16,3.6,15.58,4.65,22.84,8.09,10.26,4.85,20.51,10.1,29.75,16.61,10.18,7.17,20.58,12.25,33.21,12.18.83,0,2,1.38,2.46,2.38,3.33,7.54,9.22,11.56,17.18,12.8,3.26.5,6.58.66,9.83,1.23s6.38,2.43,9.3,2c7-1.1,13.8-3.27,20.7-4.91.82-.19,1.8.29,3.9.69l-14.5,7c.43,1.85.22,4.89,1.65,6.38a142.16,142.16,0,0,0,13,11.44,68.27,68.27,0,0,0,6.4,4.32c3.77,2.42,6.94,5,5.71,10.36-.35,1.54,1,5,1.75,5,7,.31,6.78,6.63,9.31,10.47l6-1.48c.19,9.07,3.65,17.5-.35,26.1-3.36-2.72-6.27-5.09-10.26-8.34-.78,3.19-1.42,5.81-2.16,8.79a14.82,14.82,0,0,0-1.94-.89c-.9-.29-1.85-.42-3-.67,1.48,7.63,3.17,11.75,5,12.65-3.43.86-6.89,2.15-10.42,2.35-1,.06-2.46-2.86-3.33-4.6-.59-1.17-.53-2.67-.76-4-3.52.69-5.44-2.46-8.16-3.29-1.49-.46-3.7,2.11-5.76,2.74-9.66,2.92-19.37,5.65-27.94,8.12l-8.31,16.39c-6.63-2.33-9.27-.76-14.23,5-2,2.38-4,6.22-8.43,6.39-5,.2-10.06,1-14.86,1.45l-4-4.88c1.47,6.51,1.74,11.36-6.34,12.59-.94.15-1.72,2.59-2.23,4.09-1.86,5.56-6.5,7.67-12.11,5.81-1.73-.57-4.61-.65-5.59.36s-.53,3.73-.34,5.66c.14,1.33.9,2.6,1.6,4.51-8.39-.93-13.16,3.07-16.4,9.49,4.22,6.25,3.3,8.26-2.64,13.05-4.41,3.55-12,5-10.61,13.76.27,1.7-3,4.59-5.18,5.93-3.6,2.18-7.7,3.53-12.48,5.62-11.18-12-22.43-24.38-34-36.43C78.74,221,75.68,205,65.87,192.61l1.67-1.09-4.1-.32c0-1.75.53-4.09-.08-4.44-8.31-4.81-10-13.67-13.74-21.32-.91-1.86-4.21-4.08-5.9-3.73-7.3,1.54-13.88,4.61-22.11,3.3-7-1.12-14.34.42-21.61.94v4.28a40.55,40.55,0,0,1,4.13.62c9.32,1.9,20.39,3,30.07-2.8,4.38-2.64,9.59,3.28,12.48,7.36,4.08,5.77,1.27,15,10.37,18.36,3.11,1.16,5.17,6.59,6.59,10.47,1.56,4.27,2.52,8.29,6.61,11.3,1.8,1.32,2.3,5.24,2.3,8,0,7,5.53,9.53,9.77,13.09,1.59,1.33,3.71,2,5.62,3.06-3.16,4.44-.33,6.22,2.89,8.19a69.94,69.94,0,0,1,6.91,5.44l-.16-.16c8.43,6.31,16.92,12.55,25.24,19,1.34,1,5.36,2,1.65,5a1.27,1.27,0,0,0-.09,1.11c6.85,3.61,1.54,9.76,2.94,14.52a5.09,5.09,0,0,1-1.57,4.51c-5.32,3.32-5.27,8.79-6.53,13.91-.48,1.95-2.31,3.61-3.67,5.29a18.06,18.06,0,0,1-3.83,4c-1.47,1-4.14,2.27-5,1.66-3-2.22-5.41-2.86-7.65.49-2,3-10.12,2.92-4.93,9.74.61.8-.35,2.8-.59,4.24,1.52.7,3,1.8,4.55,2,1.94.23,5,.45,5.79-.64,4.48-5.86,10.31-8.26,17.37-9.72,3.72-.77,10.47-.61,9.85-7.1-.73-7.52,4.22-11.43,7.3-16.61l1.85.86-3,6.5c5.85-3.92,5.18-4.08,1.91-9.45-2.11-3.46-3.07-9.17-1.69-12.77,1.25-3.25,2.87-8.49,8.65-8.94,1.18-.09,3.25-3.92,2.9-5.61-.82-4-2.85-7.8-5-13.31,2.19.7,4.48.76,5.62,1.92,2.7,2.75,5,2.39,7-.25,4.34-5.56,7.52-11.5,5.74-19-.27-1.12.46-3.44,1.22-3.68,3.75-1.2,2.89-3.48,2.14-6.15-1.27-4.56.71-8.1,5.09-8.84,5.53-1,11.25-.68,17.54-1,.9-1.11,2.51-3,4-5,3.44-4.4,5-9.92,11.41-12.43,3.75-1.46,6.18-3,10.55-2,3.23.75,8.9-.55,10.45-2.92A20.22,20.22,0,0,1,235.53,194c3.41-1.19,5.47-2.7,6.84-6.67,1.45-4.22,5.35-7.65,8.42-11.21.5-.58,2.31.17,3.44-.07,10.51-2.22,22.41-.13,30.71-9.89,2,5.54,6.87,5.63,11.39,5.3,5.58-.41,10.16-3,12.61-8.46s13-6.68,15.48-2.46c1.28,2.19,3.25,4,4.62,6.14.85,1.33,2,3.31,1.57,4.48-3,8.16.29,13.94,6.43,18.92.95.77,1.55,2,2.7,3.5-1.9.75-3.4,1.3-4.87,1.93a18.15,18.15,0,0,0-3.58,1.79c-.21.16.39,2.15.67,2.16a8.09,8.09,0,0,0,4.13-.51c4.51-2.58,12.52-.42,15.6,4.42L343,206.56l7.66,3.86c-7.27,4.66.5,5.77,1.64,8.15s3.44,4.45,6,7.64l-7,.38c2.41,4.79,5.67,6.7,9.86,3.53,5.05-3.83,7.9-.58,9.77,3.08a115.71,115.71,0,0,1,6.71,17.13c.44,1.35-1.07,3.33-1.68,5,2.11,2.45,2.94,5.44,4,8.33.73,1.94,1.43,4.15,2.83,5.56,10,10,16.21,22,16.76,36,.37,9.52-1.38,19.12-2.2,28.67,0,.19-.21.38-.34.55-7.37,9.41-5.3,18.59.15,26.88l-8.41,2.72,7.56,3.2-4.06,1.06c-.17,1.84.36,4.31-.6,5.21-5.38,5.08-11,9.9-16.78,14.56-4.25,3.46-6.26,7.49-3.5,12.52,1.51,2.76,4,4.95,6.41,7.78-3.32,5.11-6.59,9.88-9.54,14.84-.93,1.57-1,3.65-1.49,5.49-.45,1.6-.53,3.53-1.51,4.71-3.92,4.72-6.14,9.64-4.16,15.94a13.07,13.07,0,0,1,.06,6.31c-2.07,9.87-2.48,19.54,1.62,29.09,2.13,5-1.32,8.64-6,7.85-1.1,2.62-1.75,5.25-3.17,7.35-4,5.89-10.41,7.06-16.88,8-6.66,1-13.28,2.18-19.95,3a48.34,48.34,0,0,1-8.59,0c-4.11-.23-8.21-.64-12.52-1,2.38,5.5,4.53,9.3,5.65,13.37,1.51,5.45,4.68,7.25,9.16,6.61,1.65-3.11,2.44-7,4.38-7.75,3.72-1.32,8.22-.29,12.18-1.17,4.89-1.1,10-2.49,14.23-5,3.62-2.14,13.62-5.2,17.4-3.47,3.14,1.44,7,.61,6.12-2.53-1.83-6.7,2.57-9.05,6.15-12.49,2.87-2.75,4.8-2.18,7.61.42,5.3,4.91,8.29,10.82,10.53,17.56,2.83,8.5,5.33,17.49,10.14,24.86,4.35,6.66,4.11,12.95,3.25,19.74-.22,1.71-2.19,3.74-3.87,4.6-3.33,1.7-7,2.68-11.82,4.42,2.35,4.2,3.95,7.54,6,10.57,3.75,5.57,7.94,10.85,11.56,16.49.86,1.34.54,3.72.17,5.51-1.64,8-3.23,15.83,6.3,18.51v7.6a39.49,39.49,0,0,0-2.47,8.15c-.38,1.63-1,3.22-1.32,4.86-1.49,6.74-6.62,11.1-10.56,16.23L407,651.15c-.28,4.89-.48,8.49-.69,12.09,1.25-2.26,1.95-5.41,3.87-6.62,4.45-2.81,5.85-7,4.67-11.13-1.56-5.54,1.19-9.38,3.08-13.83,2.15-5,6.33-4.64,9.8-3.11,6.28,2.78,12.14,6.52,18.25,9.9,3.6-5.59,5.55-5.53,11.2-.67a69.33,69.33,0,0,0,14.15,9.63c2.77,1.37,7.08-.33,9.83,1.06,2.94,1.49,4.37,6.06,7.31,7.38,5.58,2.52,9.79,8.4,17.11,7.26,1-.16,2.31,3.25,3.85,4.59,1.76,1.53,4.28,4,5.85,3.62,5.57-1.38,10.25-.88,15.13,2.33,1.23.81,4.46-1.19,6.62-2.21.22-.11.2-.73.14-1.07,3.84-.55,8.08-2.51,10.6-1.19,5.58,2.94,9.52-.69,14.23-1.31,4.91-.65,10,.38,15.08.68,1.94.32,3.71-1.91,5.94-2.57,7.87-2.3,15.08.7,21.92,4.12,4.15,2.07,7.76,4.45,12.74,2.2a7.44,7.44,0,0,1,6.24.61c5,3.53,10.64,3,16,2.52,4.9-.48,6.8,2.87,7.94,5.81s-.07,6.58.16,9.89c.29,4.33-.54,7.32-5.81,6.82a2.38,2.38,0,0,0-1.58.9c-3.92,4.46-7.91,8.87-11.62,13.5-1.76,2.2-2.94,4.86-5.11,8.56.94.94,1.87,1.89,2.8,2.85,1.6,1.65,4.62,3.5,4.48,5-.68,7.36,2.43,13.08,6.24,18.85.84,1.28,0,3.59.18,5.4.2,2.19-.12,5,1.1,6.42,3,3.48,6.73,6.3,10.14,9.43s6.47,6.57,10.1,9.34c7.15,5.47,13.26,12.75,23.58,12.83,5.43,0,7.87,4.29,7.75,9.9-.1,4.56,1,9.14,1.3,13.72.09,1.27-.66,2.6-1,3.83.52.77,1.72,2.37,2.71,4.09.6,1,.78,3.15,1.32,3.21,3.71.42,4.83,2.37,2.66,5.12-1.06,1.34-3.73,1.43-6.11,2.23-.56,8.32-1.1,10-5.46,10.76-5.39.9-7.82,3.47-7.42,9,.17,2.26-.49,4.58-.77,6.87l-1.37-1.28c-3.06,1.77-7.79,2.88-8.81,5.45-1.94,4.89-5.13,5.65-9.34,6.21-5.3.7-11.88,9.55-11.41,15.67,6.76-3.74,10.64.82,13.5,4.44,4.44-4.44,7.9-9.91,12.85-12.39,6.63-3.31,10.43-6.42,11-13.62.13-1.66.81-3.82,2-4.77,3.79-3,8-5.48,11.94-8.35a27.49,27.49,0,0,0,4.84-4.68c1.69-2.05,3.08-4.34,3.78-5.33,2.38-2.88,4.17-6.14,5-5.91,6.56,1.75,14.4,0,19.26,6.94,1.33,1.9,4,2.83,7.08,4.85.89-5.37.07-11.3,7.21-11.62,4.44-.2,8.69-6.39,13.14-.21,6.28-4.6,6.42-5,14.26-2.31,6.61,2.29,14,4.42,18.85,9,4.36,4.16,6.77,4.07,11.43,1.92,2.49-1.16,7.1-1.55,8.72-.06,4,3.69,7.61,4,12.24,2,1.41-.63,3.25-.3,5.51-.45,1.23,12.16,2.32,23.8,3.64,35.41.46,4,2.43,8.06,2.1,11.95-.54,6.26,2.31,8.86,7.53,10.16-1.87-2.72-4.8-5.21-5.36-8.15a224,224,0,0,1-3-24.83c-.65-8.64-.78-17.33-1-26-.13-4.25,0-8.51,0-13.26-1.76.57-2.4,1-3,.93-6.8-1.13-13.35,3.78-20.31.74-1.16-.51-3.28.07-4.45.87C797.21,838.76,789,835,784.54,828c-1.13-1.79-3.35-3.78-5.27-4-4.94-.56-10-.19-14.54-.19,0-3,.33-4.47-.16-5.61-.2-.48-2.34-.61-3.28-.19-3.66,1.66-7,4.06-10.81,5.27a14.24,14.24,0,0,1-8-.26c-3.07-.93-5.84-2.84-10.48-5.22l2.42,9.34c-3.12,0-7.07,1.08-8.13-.21-2.66-3.22-4.83-1.52-7.43-.86a51.39,51.39,0,0,1-7.88,1.39,28.37,28.37,0,0,1-5.17-.45c.23-2.14-.32-5,.84-6.26,2.41-2.63,2.29-4.25-.29-6.38a5.65,5.65,0,0,1-2-3.18c-1.22-9.22-2.36-18.44-3.2-27.7-.11-1.2,1.45-2.7,2.48-3.84,3.7-4.09,7.44-8.14,11.28-12.09,2.07-2.13,4.12-4.44,6.62-5.93,4.67-2.79,9.49-6,8.26-11.85-2.6-12.49,4.57-22.18,11.4-29.36,12.65-13.28,27.41-17,44.35-7.14,5.75-1.52,10.71-2.86,15.7-4.09.44-.11,1.16.46,1.61.87,3.77,3.49,7.46,7.05,11.27,10.5,7.09,6.41,12.88,14.49,22.05,18.3,10.45,4.33,17.68,6.42,22.18-4C850.05,738.41,842.54,735.44,835.92,730.73ZM420.29,333.4c-6.57,5.09-7.52,5.05-11.27-.67C413,329.71,416.94,326.38,420.29,333.4ZM858.52,734.57l-.12.28.29-.12Z" fill="#c69432"/>
        <path d="M1570.52,0H1529c1.17,1.19,2.55,2.41,3,3.86.65,2.21.5,4.67.53,7,.07,4.59,1.67,10.2-.38,13.54-3,5-.61,7.78,1.27,11.28a21.81,21.81,0,0,0,3,3.62c-1.46,2.12-3.81,4-3.64,5.58.81,7.62,1.51,15.06-1.33,22.52-1,2.57-.33,5.7-.87,8.49-.64,3.34-2.91,6.76-2.44,9.83,1,6.3,3,12.48,5.16,18.53,1,2.84,3.5,5.12,4.73,7.92,1.66,3.79,2.74,7.84,4.08,11.77l2.31-.13-4.42,8.06c-2.49-3.78-4.17-6.34-6.43-9.79,0,11.26-5.54,19-11.71,17.77a36.49,36.49,0,0,1-12.19,15.89c-8.76,6.61-16.66,4.62-24.93,2.11-8.73-2.65-12.56-1.85-17.6,6.23-.22.36-.23.93-.52,1.17-3.21,2.59-5.57,7.68-10.79,1.67-2-2.26-6.71-2.09-10.18-3.05a5.82,5.82,0,0,1-1.06-.53c-.76-1.63-1.49-3.18-2-4.33-6.09,7.82,1,13,4.34,18.64-7,.73-2.89,6.74-6.29,9.67-.38-3.25-.68-5.83-1.07-9.2l-3.84,4.1c-1.19-2-2.14-3.67-3.09-5.32-8.79,11-17.33,20.55-30.85,23.84-.81-1.91-1.57-3.7-2.35-5.56-6.56,2-4.47,5.45-2.6,9a55.38,55.38,0,0,1,2.33,5.7l-11.76-2.8c-3.5,7.17-9.19,9.85-15.81,7.39-1.14-.42-1.53-2.87-2.38-4.61l-2.34,1.19c-3.84-4.88-7.45-9.48-11.37-14.45h6.92c.13-.53.25-1.07.38-1.6a21.72,21.72,0,0,1-3.59-1.13c-2.83-1.42-6.94-2.31-8.1-4.64-3.65-7.27-6.19-15.11-8.71-21.59l-7.5,15.87c-7-3.51,4.53-9.35-4.08-11.76l-2.27,3.64-8.34,1.1,1.06-.93-5.78-4.25c-4.79,7.1-7.3,1.94-9.33-1.4l-12.26,3.58-1.35-2,6-7.13c-4.59-5.86-15.46,4.9-17.77-6.92-6.76,3.22-12.06,1-17.28-2.66-2.78-1.94-6.24-2.88-9-4.87-2.56-1.88-4.43-4.66-6.82-6.81-6.54-5.92.08-19.72-13-21.66-.13,0-.16-.43-.32-.54-3.76-2.43-7.53-4.84-10.83-7-1.6-2.86-3.28-5.93-5-9-2.35-4-6.4-8-6.66-12.1-.24-4,3.43-8.22,5-11.61l-6.25,2.25c-1.77-2.19-3.19-5.13-4.2-5-6.54.87-7.89-5.15-11-8.25-4.16-4.16-8.42-9.23-10-14.67-1.12-4-9.93-6.91-2.19-12.78-3.48-.64-6.3-1.5-9.15-1.62-5.36-.22-5.78-4.67-7.24-8.07-1.14-2.65-.74-6.45-2.53-8.26-7.05-7.12-10.75-14.87-8.41-24.95h-49.8c-7.89,8-11.29,18.93-16.84,28.25-3.78,6.36-10,10-13.32,16.38-1.6,3.1-4.71,5.42-7.14,8.1-1.22,1.58-4.76,1.94-5.21,3.31-2.45,7.4-9.24,8.47-14.83,11.42a44.09,44.09,0,0,0-5.67,3.94l-19.68,1.7,6.66,3.7c-2.08,2.19-3.85,4.75-6.25,6.39-2.62,1.8-6.75,4.64-8.61,3.73-6.22-3-6.06,1-6.94,4.73-2.06,8.69-10.31,12-15.77,17.67-.43.45-1.65,0-2.42.29-2.74.86-5.43,1.83-8.85,3-2.32-2.65-1.72-2-5.74,1.79-4.24,4-9.79,3.5-12.58,1.55l-11.78,7.25.87,1h5.32c-7,3.22-9.57,11.13-18.18,8,1.38,7.27-3,9.25-7.79,12-5.54,3.12-13,5.33-13.24,14.59-5.38-9.26-10.51,2.85-16.81-1.93.64,4.38,1,7.21,1.47,10-4.44,1.67-4.44,1.67-2.37,4.13l1.29,2.71c2.4,3.69,4.8,3.34,7.78.39A17.45,17.45,0,0,1,916,170c9.22-3,19.45-4.2,23.53-15.19.28-.74,1.73-1.39,2.69-1.48,8.65-.77,13.84-7,19.78-12.17,3.38-2.92,6.54-6.6,10.5-8.17,5.31-2.11,11.58-1.79,16.92-3.84,5.69-2.2,12-2.47,15.56-10.33,3.44-7.55,10.84-13.81,17.67-19.14,5-3.93,9-10.41,16.9-10.16,1.75,0,3.52-1.53,5.32-2.25,5.58-2.2,11.06-5.72,16.79-6.19,8-.65,11.47-5.67,15.32-11.18s4.32-14.15,12.9-16.29c.75-.18.93-2.52,1.43-3.84,1.72-4.55,4-8.57,9.16-9a25,25,0,0,1,1-4.41c1.92-4.64,3.75-9.34,6.1-13.76a114,114,0,0,1,9.49-15.61c2.42-3.18,13-2.94,15.52.43,6.92,9.1,14.43,18,16.27,29.93,1.09,7.1,4,12.31,10.6,16.88,6.92,4.79,18.48,7.68,16,20.54-.16.85,1.49,2,2.13,3.07,1.28,2.16,2.06,4.74,3.72,6.53,4.76,5.12,9.42,10.53,15,14.65,3.29,2.43,8.09,10.26,6.34,14.23-.47,1.06-1.23,2.73-.79,3.34,5.18,7.2,9.52,15.51,16.18,21,6.47,5.33,14.26,8.87,19.15,16.33,2.84,4.32,6.85,7.86,10.25,11.67l-2.53,1.32c6.26,3.41,12.22,6.91,18.44,9.86,1.47.7,3.81-.55,5.76-.7,1.74-.13,4.86-.44,5.06.14,3.11,8.92,12.82,8.73,18.74,13.71,2.15,1.81,5.44,3.4,8.54-1s12.71-4.33,14.72-1.13c3.79,6.09,6.63,6.83,12.33,2.65,1.14,1.69,2.16,3.45,3.41,5,2.25,2.83,4.55,5.64,7,8.3,5,5.41,10.13,10.69,15.12,16.11a3.34,3.34,0,0,1,.36,2.47c-.91,5.37,7.34,9.08,2.71,15.09,6.46,5.31,2.64,12.07,2.67,18.32,0,3.13,1.88,7.23.5,9.2-4.79,6.85-5.84,14-4.6,21.9.22,1.38-.94,3.12-1.79,4.5-2.31,3.7-5.71,5.24-10.08,6.21-7.86,1.74-4.27,11.13-9,15.34-1.12,1-1.51,2.82-2.24,4.27-1.36-1.44-2.73-2.87-4.1-4.31l-3.65,2,4.8,5.35-6-.56c-.39,4.33.5,9-1.41,11.63-2.07,2.82-6.78,3.7-10.86,5.68a60.86,60.86,0,0,1,1.14,6c.29,2.67,1.18,5.8.18,8-4,8.71-8.6,17.12-13.45,26.55-13.47-7.82-31.63-.76-44.74-13.5,0,2.07.4,3.92,1.3,4.25,9,3.3,16.36,9.31,27.55,8.56,13.93-.92,20.87,5.33,22.87,21.22a46.12,46.12,0,0,0,1.2,4.87,104.58,104.58,0,0,1,2.53,10.89c.67,5,.81,10.14,1.1,14.2-1.94,2.93-5.15,7.12-4.83,7.41,4.66,4.21,1.42,7.86.06,12-1.83,5.57-2.55,11.49-4.2,17.13-1.92,6.56-3,12.82,1.87,18.66.6.73,1.19,2.26.84,2.87-2.6,4.54.83,6.61,3.35,9.25,3.33,3.49,9.59,5.24,7.52,12.15-.1.32.69,1.06,1.2,1.39,9.44,5.92,18.89,11.8,28.1,17.54,1.49-2.55,3.14-5.38,4.1-7,4.17,3.11,7.64,5.82,11.24,8.34,4.27,3,9.18,5.29,12.85,8.88a62.31,62.31,0,0,1,10.35,13.71c4.21,7.37,3.45,9.52-3.46,14.17-4,2.66-8.08,5-11.12,6.93a63,63,0,0,0,5.33,4.8c2,1.4,4.19,2.43,7.42,4.26-3.09-10.22-1.53-12.33,6.45-18.09,7.68-5.55,12,4.29,19.21,2.58-.43-2.62-.89-5.41-1-6.29,2.76-4.23,4.7-7.19,6.13-9.37-3.93-1.57-6.82-2-8.79-3.64-5.8-4.73,1.64-7.86,2.07-11.06-3.72-3.18-6.48-6.62-10.07-8.4-8.58-4.24-17.42-8-26.37-11.38-10.61-4-19.92-9.12-24.06-20.57-.44-1.21-1.79-2.86-2.83-2.95-6.83-.63-7.34-1.26-7.16-8.69,0-1.16-1.73-3.45-2.44-3.37-5.22.61-5.64-2.55-5.19-6.24,1-8.29-.79-16.53,3.86-24.9,4.19-7.54,1.65-16.46-5.08-23,7.73-5.28,7.71-5.27,3.89-14.66a6.69,6.69,0,0,1-.3-3.15c.58-5,1.28-10,1.8-14.09l-8.08-1.3c2.2-6.28,8.18-11.15.32-15.84a7.52,7.52,0,0,0,1.36-1.6c5-11.63,5.89-25.1,16.07-34.4.86-.79-.17-3.65-.32-5.56l1.58,1.1c3.17-4.2,6.75-8.16,9.41-12.66a135.12,135.12,0,0,1,26.61-32.34,7.61,7.61,0,0,0,2.6-4.27c.75-7.08.29-14.39,1.9-21.23,1.35-5.69-4.42-12.7,3.26-16.8-3.56-7.95-2.81-10,5.55-11.94,10-2.35,16.35-9.84,23.8-15.83,1.45-1.17,3-2.27,4.52-3.32,3.23-2.2,6.51-4.32,9.74-6.51,1.2-.81,2.28-1.84,3.52-2.57,5.24-3.07,10.7-5.78,15.73-9.15,6.78-4.54,13.24-9.56,20-14.48,4.14,6.27,9.8,5.74,15.58,3.87a5.42,5.42,0,0,0,3.23-3.19c.21-.81-1.66-2.17-2.59-3.28l7.1-5.09c3.23.39,5.88.69,8.52,1s5.63.35,8.2,1.24c6.54,2.27,11.44.4,15.43-5.24a34.88,34.88,0,0,1,9.09-8.67c3.61-2.37,7.92-3.67,13.2-6,0-.17.45-1.54.84-2.92.31.61.63,1.22.95,1.83l7.1-2.49-4-6.3-6.78,2.34-1.75-1.1c6.18-6,10.94-12.38,6.33-19.56l10.84-5.32c0-.68-.05-1.37-.07-2.05l-10-3.22c.79-1.51,1.61-4,3.17-5.88,1.94-2.33,4.49-4.14,6.52-5.94l-5.88-6.45-4.31.52c1.16-4.85,2.13-8.86,3.17-13.2l-5.71,1.3c.43-3.15.79-5.73,1.14-8.35h9.24L1548.17,74l5.55-6.3-1.82,0c0-2.75-.53-5.62.11-8.2,1.16-4.61,4-9,4.3-13.56s-1.75-9.22-2.67-13.38l-4.56,4.21c-2.61-9.29,13-14,4.85-22C1559.65,9.65,1566.51,5.61,1570.52,0ZM1382,529.28c2.73,1.62,6.39,2.61,8,5,2.79,4.17,5.08,9.21-1,14.45l-9-17.21C1380.69,530.77,1381.35,530,1382,529.28Zm154.49-376.63c.86-3.29,1.56-6,2.27-8.74l1.57-.4,2,11.83Z" fill="#c69432"/>
        <path d="M901.18,192.56c-4.35,5.7-1.89,14.34-8.87,19.07-5.3,3.58-9.41,9.16-15,12-8,4.11-16.82,6.56-25.32,9.67-.22.08-.65-.4-1.64-1,2.14,8.16-4.49,8-9,10l1.41,1.41c-1.37,1.53-2.45,3.75-4.16,4.45-4.66,1.9-8.4,4.3-8.7,9.81-.47,8.58-6.86,12.63-13.16,16-4.16,2.26-9.38,2.54-14.07,3.89-1.54.44-3.75,1.12-4.23,2.28-3.11,7.6-8.75,10.18-15.65,8.63,0,10.85.4,21.18-.28,31.44-.17,2.56-3.81,4.88-5.4,6.78-.33,8.9.44,18.11-1.3,26.83-1.6,8-7.57,14.66-10,22.11.87,8.36,1.89,17,2.61,25.64.47,5.62.51,11.27.7,16.91.13,3.88,0,7.79.38,11.65.08.93,1.76,2.58,2.29,2.43a11.31,11.31,0,0,0,4.77-2.6,47.62,47.62,0,0,0,4.47-5.74l1.48,1c-.74,2.66-1.49,5.33-2.27,8.12-6.17.78-11.17,2.49-15,8.88-4,6.82-13.53,7.57-21.53,4.52-1.29-.49-2.7-1.26-4-1.13-6.63.67-13.22,2.09-19.85,2.29-7.42.23-14.88-.56-22.32-.92-.63,0-1.58.08-1.83-.27-6.15-8.63-15.46-4.6-23.06-4.71-6.06-.08-12.12,4.39-18.28,6.57-2.6.93-6.25.28-8,1.89-4.75,4.29-8.81,9.37-13,14.29a3.13,3.13,0,0,0,.3,3.06c5.07,3.95,1.41,9.64,3,14.45,3.52,10.71-.59,21.38-2.47,32a29.28,29.28,0,0,0-.53,8.59c.67,5.3,1.91,10.53,3,16.37l1.53-.22c2.83,7.71,5.59,15.21,8.49,23.13L643.35,568c-1.29-4.09-2.82-9.61-4.8-15-2.17-5.87-5.82-11.38-6.9-17.4C630,526.42,625,517.75,630,507.35c3-6.16,1.39-14.52,1.69-21.89.17-4.23,0-8.46,0-12.69,0-1.08.34-2.15.33-3.22-.14-11.05,1-13.44,11.3-20.56-3.82-2.34-6.79-4.76-10.18-6.06-3.59-1.38-7.59-1.68-11.78-2.53,4-7.12,11.77-8.12,15.93-3.08a37.05,37.05,0,0,0,4.72,5.26c4.59,3.78,4.5,3.63,6.48-1.89a5.83,5.83,0,0,1,3.69-3.08c5.85-1.37,11.75-2.74,17.84-1.2,1.2.3,3.11.58,3.75-.07,4.14-4.19,8-.36,12-.06,8.75.65,17.55.85,26.33.9,9.46,0,18.92-.3,28.38-.48,4.41-.08,8.92.34,13.22-.39,5.32-.9,9.07-11.73,7.83-17.09-1.36-5.84-.92-12.09-1.22-18.17,0-.8.53-1.82.21-2.39-6.07-10.56-2.89-22.18-3.2-33.24-.12-4.17,4.85-8.39,7.14-12.77,1-2,1.08-4.46,1.79-6.65,2.15-6.65-1.11-14,2.85-20.49,2-3.25,3.16-6.74.71-10.87-1.06-1.79-.27-5.22.64-7.53,2.76-7,1-13.21-4.29-16.27l10.9-5.67c.89,0,2.92.61,3.7-.12a23.43,23.43,0,0,0,4.27-6c2.09-3.77,4.49-6.21,9.41-5.1,7.44,1.68,12.83-1.75,16.26-8.11,3.11-5.77,6.19-11.77,1.7-18.65l3.35-2.94c.63,5.45,3.61,4.45,5.84,2a26.56,26.56,0,0,0,5.24-8.64c1.75-4.83-2.9-5.41-5.65-7.14-3.78-2.38-9.12-3.89-11-7.31-2.29-4.21-6.43-6-8.64-9.16-6.39-9.25-15.89-6.93-24.3-7.83-5.43-.58-8.78-1.62-12.5-6.4-5-6.4-12.81-10.5-18.81-16.22-3.9-3.73-8.33-8.15-9.7-13.05-2.75-9.88-9-14.94-18.75-13-2.16.43-4.57-.31-8-.62l-2.34,2.9c-4.86-7.52-11.13-6-17.2-2.88a96.26,96.26,0,0,0-12,7.79c-3.66,2.61-11.55,1.4-15.63-.52-7.46-3.51-12.24-12.94-22.62-10.42-1.19.29-3.08-2.31-4.65-3.57l.68-1.68c6.53,1.92,13,4.3,19.61,5.63a89.57,89.57,0,0,0,18,1.49c1.27,0,3.09-3.1,3.6-5s-.41-4.08-.92-7.69l5.42,9.8,1.44-.51c.24-1.56.47-3.12.65-4.32,3.43-.57,7.22-.26,9.75-1.9,2.25-1.45,3.1-5.07,5.1-8.69a95.63,95.63,0,0,1,8.27,6.9c3.5,3.61,6.3,4.55,8.5-.89,5.2,1.61,10.12,3.44,15.21,4.45,1.24.25,3.84-1.93,4.41-3.5,2.34-6.47,1.7-12.91-1.35-19.16-.46-.92,0-2.5.45-3.63,4.55-12.1,6-24.49,1.74-36.83-1-2.91-5.17-4.74-8.49-7.59,1.74-4,.37-6.55-5.76-7.83-5.91-1.23-7.79-7-8.78-12.66a22.3,22.3,0,0,0-2.42-6.63c-4.91-9-10.07-17.91-14.88-27-.8-1.52-.28-3.75-.37-5.72l4.5-.44c.49-.64,1-1.28,1.48-1.93l-6.41-3.48C697,7.52,701,4.2,701.19,0h8.11l.93.53c.06-.17.13-.35.19-.53h6.77L705.58,8.12c5.06,9.37,2.78,22.42,11.16,32.57A20.92,20.92,0,0,1,721.05,54c-.52,9.53,7.63,10.92,12.68,14.69,3.2,2.4,6.09,3.6,7.1,8.17.59,2.64,4.49,4.55,7.29,7.16,0,7.91.23,17.11-.13,26.29-.13,3.32-2.09,6.53-2.5,9.88-.56,4.64-.44,9.38-.62,14.07h2.29c-1,3.46-2.4,6.81-2.88,10.28a19.1,19.1,0,0,0,.67,8.71c1.86,5.17,5,9.9,6.64,15.1,2.11,6.53,7.29,6.76,12.53,7.68a7.8,7.8,0,0,1,4.43,2.55c4.08,5.15,7.77,10.62,11.83,15.79,3.88,4.93,15.92,5.95,20.71,2,1.49-1.22,2.91-2.74,4.64-3.36.73-.26,2.44,1.24,3.21,2.3s.77,3,1.67,4.06c3.69,4.38,8.22,8.18,11.29,12.93,5,7.71,11.79,11.07,21,9,3.13-.69,6.84-.48,9.28-2.15,2.78-1.92,4.44-5.47,6.87-8.69l3.73,3.29c1.12-5.35,11.72.56,9-9.15l8.5-.39c10.6-9.83,17.12-20.53,20.2-33.15l1.29,2.71C905,180.11,905.81,186.48,901.18,192.56Z" fill="#c69432"/>
        <path d="M1750.83,494.9l-.91.88v-2.23Z" fill="#c69432"/>
        <path d="M1757.22,449.81l-.06-.33.24.14Z" fill="#c69432"/>
        <path d="M1761.29,460a0,0,0,0,1,0,0l-.15.2Z" fill="#c69432"/>
        <path d="M1779.85,234.5l0,0C1780,234.13,1780.21,234,1779.85,234.5Z" fill="#c69432"/>
        <path d="M1807.4,271.4c-1,3.81-1.7,6.71-2.54,10,.23.16,1.32.94,1.43,1-.49,3.9-.88,6.91-1.26,9.93l-.4-.21c-1.45,6.44-2.91,12.87-4.1,18.18-3,1.89-5.31,3.4-7.68,4.87-2.09,1.3-4.19,2.58-6.32,3.82-9.77,5.68-13.53,16.62-21.2,24.14-.44.44-1,1.17-1,1.64,1.63,8.08,3.35,16.13,5.26,25.17h-8.25c.61,1.73,1.07,4.18,2.26,6.21,3.15,5.4,1.67,10.56.3,16.09-1.07,4.37-2,9.48-.75,13.56,2.38,7.68,6.27,14.92,9.86,22.18.58,1.17,2.85,1.49,4.32,2.24,2.62,1.33,5.22,2.68,8.82,4.53-7.4.36-8.24-.16-20.13-11.59-4.35,4-3,7,1.21,10.16,6.92,5.23,13.63,10.76,20.27,16.35a11.27,11.27,0,0,1,3.08,4.8c1,3,1.58,6.13,2.47,9.79l-1.59,3.59H1798c5.77,5.85,6.06,5.84,11.36-1.27,2.83-3.78,20.17-7,24.61-5.09,5.44,2.41,11.17,4.16,16.71,6.36,1.76.7,4.06,1.52,4.83,3,3,5.71,7.44,6.06,12.57,3.89,6.1-2.58,12.08-5.46,18.11-8.21-1.27,1.89-2.17,4.28-3.89,5.58-3.76,2.84-8.1,4.92-11.86,7.77-1.54,1.16-3.42,3.81-3.05,5.24,1.51,5.9,4.42,11.47,5.67,17.4,1,5,7.49,10.43-.18,15.51-.52.34-.65,2.57-.19,2.92,6.66,5.19,3,19.3,16.22,18.83.58,0,1.45,1,1.77,1.68,1.95,4.27,4.84,8.45,5.43,12.92,1.23,9.45,8.76,14.81,14.23,20.33a38.52,38.52,0,0,0,9.69,6.75v7.16c-.87-.31-2.08-.63-3.73-1.12-5.07-1.5-9.84-4-14.2-5.87-1.45-4.56-2.83-9.18-4.45-13.72a6.6,6.6,0,0,0-2.45-2.68c-3.73-2.73-7.55-5.34-12.13-8.55.82,4.52,1.72,9.46,3,16.16-1.08.12-4.61,1.62-6.18.46-2.88-2.12-5.06-5.05-1.34-9.58,2.64-3.22,3.5-8.08-.63-12.54-3.27-3.53-4.8-8.59-7.55-12.67s-6.22-8.07-9.64-12.43c4.52-3.42,6.8-6.35,2.1-11.15-2-2.05-1.77-6.34-2.47-9.64-.44-2.1-.35-4.39-1.14-6.34-2-4.94-5.25-9.55-6.3-14.64-.84-4.05-2.28-4.23-5.52-4.07a16.85,16.85,0,0,1-6.86-1.34c-5.53-2.22-10.94-4.76-16.36-7.16l9.62-1.87,0-2.66c-3.25-.75-6.56-1.31-9.74-2.29-5-1.55-5.76,1.28-6.61,5.23-.28,1.3-3.37,2.15-5.29,2.9-5.22,2-10.38,4.68-15.81,5.56-5,.81-10.25-.5-15.4-.67-4.87-.15-9.75,0-13,0-1.72,3.64-2.8,5.89-3.84,8.15-.7,1.53-1.45,3-2,4.63-3.6,10.24-11,17.8-18,25.58-2.47,2.7-5.55,5.25-6.88,8.48-2.23,5.45-6.43,2.46-9.45,2.71-7.93.66-15.94.32-23.92.34a22.33,22.33,0,0,1-3.17-.69l6.31-7.62-2.44-6.87,11.07,1.29,1.13,1.42-5,1.16c10.47,6.54,22.23,2.48,25.66-7.38a8.07,8.07,0,0,1,2-3c3.52-3.51,7.13-6.95,10.71-10.41v1.8c4.24-2.79,9.42-3.63,6.79-10.54-.75-2,.5-5.61,2.06-7.4,5.36-6.13,6.4-12.45,2.53-19.59l4.36-5.7,8.46,8.64L1768.3,466c1.3,1.44,2.38,2.18,2.79,3.19.74,1.83.49,4.71,1.71,5.5,1.38.88,5.25.58,5.71-.35,1.08-2.2,1.07-5.09,1-7.68-.08-1.57-1.94-3.22-1.69-4.6.9-4.94-1.88-7-5.62-8.91a17.82,17.82,0,0,1-6.41-5.18c-2.33-3.39-3.85-7.34-6.74-13.09-1.42,3.32-2.86,5.29-3,7.34-.16,2.37.68,4.81,1.15,7.22-9-5.15-5.91-14.1-6.64-21.82-.46-4.9-.55-9.83-1-14.73a55.67,55.67,0,0,0-1.66-8.87c-1.22-4.53-.16-7,4.16-9.88,1.79-1.19,8.89-5.24,3.46-11.8-1.93-2.34.44-8.1.55-12.3a37.64,37.64,0,0,0-.6-9.32,112.72,112.72,0,0,0-3.58-11c1.61-2.49,3-4.69,4.46-6.9.09.13.17.27.25.41,2.37-2.46,6-4.54,6.88-7.46,2.56-8.26,9.07-11.61,15.45-16.16,5.55-4,12.93-11.1,12.49-16.24-.54-6.31,3.27-10.28,3.28-15.57,0-5.56,1.52-11.51,0-16.56-1.15-3.79-6.1-6.4-9.31-9.59-1.65-1.64-3.24-3.36-4.75-5.12-1.93-2.26-3.31-5.36-5.71-6.76-7.28-4.24-13.73-9.15-18-16.58a5.62,5.62,0,0,0-1.94-1.7c-4.83-3-9.69-6-13.71-8.42-.58,1.58-.77,4.12-2.13,5.33-2.61,2.34-5.1,2-7.47-1.36a11.28,11.28,0,0,0-6.87-4.38c-10.52-1.37-15.25-10.87-23.25-15.55-2.86-1.67-7.36-.68-11.1-.64-3.39,0-6.77.39-10.14.68-2.53.22-7-2.94-6.1,3.42l-9.86-1.11c-3,1.91-9.58,1.26-13.83-2.39a10.81,10.81,0,0,0-5.27-2.22c-9.09-1.3-18.24-2.22-27.31-3.62-2-.31-3.75-2-6.33-3.5-4.27,3.24-7.82,1.33-10.86-3.62-.87-1.43-3.12-2-4.7-3-6.06-3.9-14.1-4.48-18.33-11.68-1.12-1.92-5.69-1.67-7.13-3.58-4.42-5.89-8.08-12.35-11.88-18.33,5.47-5.23,9.31-5.43,14.55-1.54,4.83,3.58,11,5.29,16.64,7.82-1.37,3-2.56,5.81,3.07,5.79,1.63,0,3.44,2.09,4.86,3.53,6.28,6.34,11.75,13.83,22.81,10.09,2.13-.72,5.57,1.81,8.17,3.26,2.16,1.19,3.9,4.19,6,4.31,6.25.38,12.57-.25,18.86-.49.3-.67.61-1.33.91-2,.65,2.23,1.29,4.47,2,7,3.55,1.31,9.41-4.41,10.78,4.09,6.35-5.12,12.59-3.39,19-3.29,5.48.08,11-3.16,16.82-3.62l5.55-6.45c-.52,4.62-3.87,9.08.52,12.73,3.23,2.68,7.43,4.23,11.26,6.14,7.44,3.69,14.87,7.43,22.44,10.82a11.92,11.92,0,0,0,6.48.51,16.87,16.87,0,0,1,15,4.37c5,4.49,10,8.92,15.53,13.89a2.28,2.28,0,0,0-.22.47c-1.65,5.18,8.74,18.21,14.21,17.85,1.7-.11,4-1,5-.25,7.67,6,12.2-1.16,18.29-3.39,10.19-3.73,16.61-13.95,28.54-14.86,4.47-.35,8.78-5.06,12.81-8.22,3.24-2.55,5.92-5.82,8.92-8.7,2.84-2.73,4.78-7.55,10.41-4.14.57.34,3.46-3.17,4.55-5.8l6.39-1.06c2.16,3.82,4,5.79,9,2.56,5.7-3.69,13.81-2.86,18.57-9.19.42-.55,2.38-.63,3.76-.37V212.2a83.17,83.17,0,0,0-11.85,3.34c-6.88,2.6-13.55,2.45-20.44,3.25-5.86.68-12,3.84-16.82,7.48-6.12,4.61-10.78,11.1-16.57,16.22-3,2.63-7,4.13-10.6,6-8.94,4.67-17.94,9.22-26.84,14-1.46.77-2.51,2.31-3.76,3.49Z" fill="#c69432"/>
        <path d="M240.93,700.34l.07-.1.12.08.06,0Z" fill="#c69432"/>
        <path d="M241.18,700.35c.61,0,.26.12,0,0Z" fill="#c69432"/>
        <path d="M279.91,552.63c-1.85,1-3.81,2.21-5.85,3.26-8,4.09-15.78,8.5-24,12a17.39,17.39,0,0,1-10.57.38c-8.27-2.24-15.74,1.89-23.2.85,0,5.23.31,9.33-.13,13.35a9.83,9.83,0,0,1-2.8,6c-6.69,5.74-6.71,13.07-6.18,20.9a39.74,39.74,0,0,1-1,12.78c-1.25,4.63-4.24,8.8-5.43,13.44-.61,2.34,1.05,5.28,1.59,7.51a49.24,49.24,0,0,0-5.76,5.49c-.22.27,2,2.49,4,5L188.1,665.31l3.56,6.46,15.16,5.73,19.9,3.34-5.38,4.76c4,1.94,7,4.13,10.37,4.81s6.87.14,10.21-.49c2.63-.5,5.08-1.95,8.06-3.16-2.9,4.34-5.7,8.55-9,13.48-2.72-1.9-5.4-3.84-8.09-5.77-1,3-2.46,5.86-3.08,8.91-1.39,6.83-1.81,13.56-5.42,20.18s-4.17,15-6.33,22.51c-.37,1.28-2.13,2.16-3.24,3.22-4.16-7.16-8-.29-11.91.32A187.07,187.07,0,0,1,212,714.87c2.49-7.09,2.85-15,3.54-22.62.35-3.86-2.14-5.4-6-3.7-1.13.51-2.69,1.56-3.46,1.17-5.37-2.68-10.5-5.88-15.9-8.5-3.56-1.72-7.51-2.63-11.16-4.19-1.41-.6-3.47-2-3.53-3-.34-7.11-5.1-3.77-8.38-3.79-2.59,0-5.44.9-7.74.13-8.2-2.75-15.61-1.91-23.78,1.25C124,676.1,111.63,679,99.5,682.3c-12.76,3.47-25.25,7.13-35.39,16.46a23.17,23.17,0,0,1-11.75,5.81c-10.49,1.41-17-6-20.28-16.5-3.22-10.39-8-21-18.23-26.9-3-1.73-7.31-1.25-10.59-1.72L0,655.55v-8.12a10,10,0,0,0,3.43,1.24c7.43,1.1,12.12,5.19,17.16,9.43a49.91,49.91,0,0,1,6.61,7.23c1.63,2,2.9,4.35,4.81,7.26-1.71,10,7.14,20.15,18.42,20,6.4-.09,13.11,1.92,18.67-3A124.35,124.35,0,0,0,79.3,680c3.76-4.14,6.84-9,13.76-7.52.67.14,2-3,2.18-3.19,6.48,0,12.32.87,17.73-.28,4.3-.91,8-4.36,12.09-6.58,7.45-4.09,14.95-8.1,20.77-11.25,4,2.17,6.88,3.64,9.67,5.21s5.72,2.89,8.14,4.87c5.85,4.76,12.28,3.3,15.56-3.51,2.36-4.9,5.09-9.65,7.91-14.31,3.89-6.41,2.11-12.43-5.85-14,4.63-5.3,9-9.83,12.66-14.81.93-1.24,0-3.95-.26-6-.28-2.56-1-5.11-.95-7.66,0-2.32,1.06-4.66,1-7-.29-9.16,11.41-14.19,8-24.73-1.36-4.2-2.35-6.35-7-6.36-5.29,0-6-1.24-5.58-9,2.39,8.13,8.46,6.95,12.88,6.21,7.88-1.32,14.64-1,21.73,3.42,2.33,1.47,7.52-1,11.16-2.36,4.31-1.59,8.35-3.91,12.85-6.07l4.43,5c-.32-3.58-.59-6.53-.76-8.47C261.31,543.48,270.68,544.11,279.91,552.63Z" fill="#c69432"/>
        <path d="M1920,956a25.15,25.15,0,0,1-5.32-3.51c-5.91-5.21-11.56-9-19.25-10.26a10.28,10.28,0,0,1-5.81-3.62c-6.28-8-11.84-10-21.62-7.3-1,.28-2.32-.3-3.48-.52-2.83-.52-5.69-1.65-8.48-1.51-9.91.5-17.73-10-17.1-19.68.5-7.63.86-13.52,8.91-16.26.29-.09.35-.76.59-1.12,4.82-7.41,11.24-13.14,18.45-18.16,1.15-.8,1.22-3.15,2-5.48-14.26,6.16-21.23,20.17-34,25.31-3.39-10.33-6.65-19.52-9.4-28.87a176.55,176.55,0,0,1-5.21-21.7c-.93-5.76-.42-11.73-.91-17.58-.81-9.7-1.92-19.38-3-29.86l-4.44-2.33,3.71-3.16c-5.12-8.43-1.78-41.8,4.4-48.43l-3.85-7c-2.92,2.62-5.56,5.53-8.71,7.67-6,4.1-6.39,8.82-4.37,15.58,2.14,7.12,3.43,15,2.73,22.29a22.58,22.58,0,0,0,2.74,13.38,17,17,0,0,1,1.5,5.38q2.48,18.15,4.76,36.35c.27,2.12-.14,4.34.26,6.42,1.49,7.84,2.67,15.8,5,23.4,1.39,4.56,5.44,8.31,6.87,12.87,1.61,5.12,2.72,10.89,2,16.11-.84,6.33-2.11,11.94,4.8,15.63a14.35,14.35,0,0,1-1.55,3.23c-2.37,2.63-5.34,4.82-7.26,7.72-5.35,8.09-10.32,16.43-15.39,24.71-2.35,3.85-5.4,7.56-6.53,11.76-.67,2.49,1.06,7.63,3,8.42,5.8,2.37,12.91,2.82,17.5-1.87,3.89-4,8.19-9.08,5.86-16.07a5.6,5.6,0,0,1,.84-4.67c3.52-3.92,12.27-4.77,16.54-1.16,6.14,5.2,14,5.13,20.54,4.89,11.43-.43,20.17,5.49,29.53,9.39,7.14,3,12.34,10.31,19,14.81,1.34.91,2.72,1.75,4.12,2.56v-5.24l-1-1.08c.33-.21.67-.45,1-.72Z" fill="#c69432"/>
        <path d="M1867.73,17.72l.26-.17c0,.11-.06.21-.1.32Z" fill="#c69432"/>
        <path d="M1890.47,5.44c-3.94,4.59-7.28,9.37-15,7.75-2.1-.44-4.94,2.7-7.49,4.36,1.9-6.11-.86-9.74-6.5-12A41.73,41.73,0,0,1,1851.72,0h25.18a8.52,8.52,0,0,1-.11,1.23,23.76,23.76,0,0,1-1.3,4C1880.67,14.36,1885.15-.25,1890.47,5.44Z" fill="#c69432"/>
        <path d="M114.68,1057.7c.17,0-.31-.2-.59,0-9,4.62-17.84,9.37-26.85,13.85-1.85.92-4.17.93-6.28,1.3q-3.72.65-7.46,1.19c-3.46.5-6.93,1-10.4,1.43-2.57.34-5.28.27-7.7,1.08-3.33,1.13-6.64,2.31-9.95,3.5H96.3a17.78,17.78,0,0,1,3.58-.73c6.23-.6,10.32-3.37,13.78-7.88,1.21-1.57,2.69-3.48,2.73-5.26C116.44,1063.41,115.34,1060.67,114.68,1057.7Z" fill="#c69432"/>
        <path d="M1920,663.27v7.66l-2.2,1c-.93.44-1.55,2.44-1.59,3.74-.23,7.13-3.86,11-11.19,10.65-7-.35-12.54.83-14.22,8.83-.09.45-1.73.49-2.57.9-1.43.68-3.86,1.34-4,2.3-.9,5.7-5.63,6.24-9.63,8.07-12.14,5.57-12.08,3.6-17.41,12.63,5.25.44,11.19-.59,13.53,6.17l-27.23,5.24c0-.36-.09-.73-.13-1.09,2.16-1.22,5.35-2,6.23-3.78,1-2.08-.07-5.15-.24-7.78-.11-1.73.42-4-.46-5.05-1.41-1.75-4.73-4.3-5.53-3.8-4.58,2.88-9.31,6-12.56,10.22-1.33,1.71.89,6.2,1.52,9.5,5.43,1.47,7,4.22,3,5.36a35.6,35.6,0,0,1-5.17.88l-7.54-5.35c.85-3.67,1.6-6.41,2.11-9.2,1.08-5.85,13-16.63,18.57-16.35,1.1.06,2.12,1.7,2.86,2.34l30.64-15c-.23-7.86,6.19-8.64,12.29-8.94,9.76-.47,17-3.67,19.78-14,.61-2.29,2.81-4.15,4.62-6.67-7.24-5.94-8.87-13.65-6.52-22.76,1.48-5.76-2.92-7.22-7.61-7.86l-.06-1.94c2.49-.22,6.1-1.56,7.24-.42a17.68,17.68,0,0,1,4.74,9.12c1.59,9.58-.49,20,6.1,27.72Z" fill="#c69432"/>
        <path d="M100.63,351.19C89,345.09,74.71,355.64,65,344.58c-4.09,5.12-7.84,9.58-11.29,14.28C52.34,360.69,50.28,364,51,365c4,5.72-1.39,8.95-3.33,12.52-2.54,4.66-6.87,7.73-10.59,3.48-4.93,1-8.56,1.82-12.21,2.5s-7.13.57-9.58,5.06c-1.53,2.79-6.55,4-10.25,5.18a34.84,34.84,0,0,1-5,1.06v-9.14a23,23,0,0,0,5.43-3.24C9.7,379,16.49,378.75,22.6,377c-.15-1.25-.34-2.84-.41-3.45,3.92.5,8.35,2.39,11.46,1.1,3.31-1.36,9.51-3.3,6.13-9.15,1.92-1.56,3.45-2.78,5-4a61.94,61.94,0,0,0,5.83-5c1.2-1.27,2.56-3,2.61-4.58.11-3.36-.57-6.75-1-11.11l9.58,2.14c1.41-1.87,3.14-4.19,5.51-7.35,5.16,7.53,13.63,3.13,20.65,6.23v-6l6,.7Z" fill="#c69432"/>
        <path d="M41.14,836.27l-.14.13-.06,0Z" fill="#c69432"/>
        <path d="M73.79,845.63c-.69,1-1.55,3.33-2.61,3.42-5.69.51-11.45.18-17.14.65S42.81,851.23,37.19,852C35.43,838.91,25,834.42,15.84,838.48c-2-6.58-9.3-10.27-15.84-9.36v-6.57l2-.85c3.59-1.52,9.59,0,13.35,2.19,4.95,2.82,8.78,7.61,13.39,11.83L32,832.06c1.45,2.49,2.9,5,4.83,8.33l4.18-4c5,4.45,10.7,7.52,17.64,6.47,2.14-.32,4.08-2,5.86-3Z" fill="#c69432"/>
        <path d="M24.31,593.38A50.84,50.84,0,0,1,0,602.66v-5.43a67.58,67.58,0,0,0,7,1.37c3.55.48,7.54-2.36,11.34-3.68A25.57,25.57,0,0,1,24.31,593.38Z" fill="#c69432"/>
        <path d="M1920,454.34v2.55c-5.33,1.23-10.78,1.68-16.62,0s-9.85,2.71-13.74,6.37c-1.22,1.15-2.43,2.32-3.64,3.49,2.92-4.27,5.74-8.62,8.85-12.74a4,4,0,0,1,3.58-1.06C1905.77,456,1912.91,455.64,1920,454.34Z" fill="#c69432"/>
        <path d="M932.7,519.24c1.51.37,3.62.25,4.42,1.21,1.61,1.93,2.5,4.45,1.75,6.19-1.71,4.06-3.16,8.28-5.25,12.14a16.8,16.8,0,0,1-5.54,6.44c-5.08,3-9.44,5.86-13.25,11.11-3.37,4.64-7.73,8.85-10.19,14.27a22.74,22.74,0,0,0-1.72,7.81c-.55,8.27-.83,16.56-1.31,26.8l12.29-6.33,14.34,4.42,20.25,6.21c4.82,1.48,9.24,1.68,11.76-3.8,9.18,1.7,17.79.28,26.34-3.17,3.81-1.53,8.7-2.78,10.21,4.49-10.46,2.59-20.75,5.67-31.87,4.59-3.72-.37-7.62,1.34-11.37,1.08a140.38,140.38,0,0,1-21.95-2.83c-6.34-1.48-12-6.63-18.86-5.12-5.87,1.27-11.44,3.91-15.81,5.46-.88,5-1.45,8.86-2.27,12.69-2.16,10.14-4.47,20.25-6.59,30.4-.17.8.95,1.8,1,2.72.22,4.16,4.83,7.84.36,12.76-1.44,1.59,1,6.46,1.28,9.87.75,10.23,9.3,20,2,30.69-2.22,3.26-1.42,5.93,1.7,7.6,7.51,4,9.2,11.82,11.27,18.69,1,3.38-2.05,8.24-3.81,12.18-2.22,5-8,9.63.08,14.54.67.4.67,2,.9,3,1.33,6-.4,12.49,3.43,18.36.87,1.35-2.48,5.51-4,8.33-1.07,2-2.29,4-3.53,6.1,10.09,2.86,10.26,3.78,3.21,15L897.32,808c-6.27,4.36-15.84,5.48-15.07,17.54l-7-7.82c-9.25,2.95-16.67,11.11-27.68,8.39-1.91-.47-4.43,1.4-6.64,2.28-6.27,2.52-6.67,2.26-6.21-4.38.06-.82.1-1.65.17-2.87,4.69-.19,10.75,1.62,10.29-6.36,0-.33,1.32-.91,2.1-1.09,5.65-1.38,11.4-2.43,17-4.1,3.93-1.18,7.59-3.22,11.4-4.82,4.94-2.08,9.87-4.2,14.87-6.12,5.2-2,6.46-6.22,3.36-10.74-2.18-3.19-5.91-6.14-2.55-10.92.52-.75-.76-3-1.54-4.37-3.6-6.31-1-13.93,4.57-15.46.47-3.77.9-7.2,1.45-11.57-2.88-5-7.38-9.47-15-10.59-2.74-.41-5.07-3.64-6.86-5l-15.48,4.61.17.16c-.18-2.93-.46-5.08,4.08-5.33,4.25-.24,8.6-4.29,12.46-3.72,3.31.49,6,5.15,9.23,8.22l4-4.61,7.37,8.39c.49-10.27-8.19-19-20.15-21,.3-.59.64-1.59.84-1.56,6.35.84,10.35-.33,7.22-8a.71.71,0,0,1,.1-.62c10-9.6-3.47-17-2.51-25.89.41-3.86-1.69-7.92-1.77-11.91-.09-4.59,2.26-9.47-2.78-13.07-.19-.13,1.49-2.89,2.56-4.93-3.24-4.84-2.79-18.66,1.32-25,3.89-6,6.81-12.34,6.68-19.8,0-2.64-.94-6,3.34-7.05,1.05-.27,2.47-3,2.08-4-.53-1.3-2.63-2-4.55-3.24,1.49-5.32,2.22-11.8,5.11-17.12,3.09-5.7,8.22-10.3,12.43-15.4,5.82-7,15.92-11,16.13-22.1,0-.63.21-1.76.49-1.81,7.37-1.38,5.92-8.71,8.84-13Z" fill="#c69432"/>
        <path d="M1447.72,638.35c.26-3.13-.92-6.3,3.81-8.12,3.11-1.19-.42-11.54-4.72-12.8-6.07-1.78-12.15-3.37-18.67-.57-2,.88-5.27-1-9.62-2.07.54,3.9,1,7,1.39,10.07l7-1.78c0-.5.31.51,0,.89-5.87,6.18-2.83,12.55-.8,19.12,1.33,4.31,1,8-2.21,12.5s-3.21,11-4.56,16.45c-6.84-5.53-7.47-11.29-1-17.42l-5.07-2.31,5.07-2.56c-1.14-10.42-2-20.6-3.46-30.7-.75-5.24-1.63-11.09-8.58-11.95-1.49-.19-3.15,1.06-4.73,1.64,2.31,5.92-3.6,8.4-5.32,12.64-1.36,3.34-3,6.55-4.47,9.55-4.48-11.67-3.37-16.59,5.11-25.86,3-3.32,4.28-7.66,10.12-8.69,2.3-.41,3.31-7.32,5.21-11.12a56.06,56.06,0,0,1,4.79-7.57c3.39-4.75,7-9.32,10.23-14.21.54-.84-.31-3.36-1.28-4.28a88.36,88.36,0,0,0-8-6.13c7-14.41,7-14.41,13.11-10.41-1.52,1.49-1,6-5.18,2.5-1.28,1.64-3.93,3.72-3.57,4.85.82,2.59,2.89,4.93,4.9,6.91.82.81,2.8.43,4.17.58.24,2.65.45,4.89.79,8.63l20.44-6L1444,548.69l1.72-2.4c3.84,1.72,8.41,2.64,11.33,5.35,3.93,3.64,7.92.11,7.77-1.08-1-7.58,4.86-5.27,8.64-6.72,2.85,9.66,12.22,5.3,18.27,8.42,1.1.57,3.6-1.56,5.45-2.44l-.75-2c.26,2.14.53,4.28.79,6.45,4.82.45,29.16-15.86,29.85-20.32,6.31.08,9.51,3.58,10.12,9.35,3-1.49,5.94-4.19,8.2-3.71,2.5.53,4.38,4,6.54,6.13.47-.49,1-1,1.43-1.46l-4.65-6.47,5.36-1.43c-1.28,3.58,4.39,8.74,8,7.69,4.06-1.19,8-2.89,12.68-3.45-1,1.31-1.93,2.61-2.69,3.64l19.38,6.72c-.24.72-.47,1.44-.7,2.15a27.72,27.72,0,0,0-4.54-1.28c-2.32-.26-5.3-1.12-6.91-.07-8,5.3-16.57,5.07-25.37,3.32-1.54-.31-2.89-1.49-4.42-1.95-2.74-.82-6.56-2.87-8.13-1.79-4.18,2.87-8.37.9-12.4,1.7a39.78,39.78,0,0,0-9.1,3.22c-6,2.84-11.56,7.31-17.8,8.51-4.69.9-10.16-2.26-15.84-3.75l-3.52,8.16c-3.58-3-6.63-5.9-10-8.27-1.59-1.12-4.33-2.24-5.78-1.6-3.23,1.43-7.06,3.34-8.65,6.18-2.07,3.7-2.2,8.49-2.91,11.65,3.34,5,6.53,9.49,9.3,14.24.29.5-1.75,3.37-2.95,3.55-7.93,1.17-11.68,8.63-7.6,15.73,1,1.69,2.06,3.3,3,5,.55.92,1.66,2.18,1.39,2.82-2.69,6.41-5.58,12.75-8.56,19-.23.49-1.58.45-2.42.66Zm-6.21-39.19c1.12-1.46,2.53-2.6,3-4s-.7-4.31.07-4.86c5.77-4.2,3-9.76,3-15,0-5.43-3.51-6.44-7.29-5.39-12.7,3.52-23.82,9.27-26.55,23.9-.77,4.11-2.38,9.66,3.56,10.85,3.07.62,7.51-1.25,10-3.47,3-2.6,4.54-6.8,7.23-11.15Z" fill="#c69432"/>
        <path d="M1324,732.78c-3-1.62-4.29-2-5.2-2.87-3.11-2.87-5.52-2.88-9.61-.64-6.24,3.41-12.76,7.92-20.77,5.3a3.46,3.46,0,0,0-1.21-.05c-.64,5.5-6.84,6.83-8.6,11.49-.57,1.49-1,3.23-2,4.32-3.19,3.32-4.63,8.34-9.88,9.72-3.36.88-7.76,11.55-5.33,13.82,6.67,6.23,2.11,10.11-1.34,13.41v17l-1.5.15c-1.19-2-2-4.45-3.66-5.76-7.71-6-5.7-13.14-2.74-20.29,2.28-5.49,3.33-9.94.15-16.21-2.47-4.87-4.75-9.14-9-12.32a15.37,15.37,0,0,0-3.62-1.76c-6.33-2.44-8.48-7.22-6.75-18,3.52,2.78,6.7,4.52,8.79,7.14,2.38,3,3.74,6.76,5.64,10.14.38.69,1.45,1.77,1.73,1.64,2.88-1.35,3,.55,3.7,2.55a8.83,8.83,0,0,0,3.75,4.52c2.13-8.42,7.43-12.77,13.25-17.14,3.39-2.55,5.88-6.71,7.9-10.6,3.36-6.5,6.82-12.09,15.44-11.64a13.39,13.39,0,0,0,7.11-2.21,32.05,32.05,0,0,1,17.5-4.69c7.41,0,9.6-5.27,6.56-12.33a54.48,54.48,0,0,1-1.86-6.35c7.46-3.21,16.8-3.64,16.84-14.89l6.6,1.88c1.64-3,3.13-5.7,4.63-8.41l1.64.2c.28,1.94,1.24,4.09.73,5.8-2.25,7.4,1.8,8.18,8.35,7.27-5.09,6.58-8.38,12.83-16.79,15.73a39.22,39.22,0,0,0-19.93,15.71c-1.5,2.37.07,6.64.07,10C1324.55,726.83,1324.28,729.17,1324,732.78Z" fill="#c69432"/>
        <path d="M932.7,519.24l-1.5,2.86c-2.27,2.14-4.2,3-5.6-1-2.45-7.13-5.11-14.21-7.76-21.28-.27-.72-1-1.69-1.63-1.8-5.42-1-10.87-1.79-16.32-2.63-.2,0-.48.15-.63.07-3.51-1.83-6.82-4.38-10.54-5.38-5.21-1.39-5-4.67-4.93-8.73,0-1.34-2.52-4-2.88-3.87-4.24,1.89-6.47-2.16-9.6-2.8-3.85-.78-8.07.19-12.67.43-.89-8-8.9-10.58-14.66-15.36-1.13-.94-1.28-3.05-1.88-4.62l.71-.71c6.67-2.15,13.72,1.59,15.07,8s4.31,8.56,10.47,6.41c8.8-3.07,12.72,4,18,7.93,7,5.15,12.23,12.92,22.28,12.75,4.28-.07,8.57.6,12.86.61,1,0,2.88-1.44,2.81-2-1-7.71,6.35-9.4,10.2-11.87,9.59-6.16,12.36-14.63,12.73-24.9,0-.86.1-1.72.15-2.53,10-3.5,10.73-4.73,8.49-14.3,2.57,3.78,4.34,8.82,7.89,11,5,3.16,11.31,4.38,17.14,6.17a38.56,38.56,0,0,0,8.9,1.63c2.57.15,6.42.52,7.54-.9,3.79-4.84,7.59-5.1,12.41-2.15.61.37,1.63.05,4.22.05-1.52-7.88-2.92-15.08-4.32-22.28l1.33-.24,6,17.54c4.81-1.68,10-3.86,15.48-5.32,5.65-1.51,10.49-5.24,17-4.78s13-.86,19.46-1c3.09-.07,6.21.78,10.29,1.34-1.13-2.87-1.7-4.32-2.51-6.36l14.71-3.86c-2.09,4.38-3.62,7.58-4.77,10-3,1.2-6.14,1.71-8.17,3.5-2.3,2-3.57,5.21-6,8.91-2.88-7.73-8-6.64-13.93-6-10.79,1.15-20.75,2.6-30.61,8.58-8.8,5.35-19.77,7.83-30.13,9.65-5.7,1-12.08-2.11-18.19-3.1-4.34-.7-8.18-1.61-9.67-6.6-.18-.59-3.44-1.05-4.66-.4-7.49,3.94-14.58,8-17,17.45A29.64,29.64,0,0,1,936,484.61c-3.64,2.53-5.1,8.15-7.65,12.32-3.64,5.95,2.62,8.67,4.7,12.14C935.59,513.29,935.55,515.93,932.7,519.24Z" fill="#c69432"/>
        <path d="M1031.19,585.75l-4.74-5.72c2.16-5.81,6.65-6.28,12-6.18,2.69.06,5.36,0,7.89-3.6,3.49-4.91,9.2-.19,13.44,1.24,5.21,1.75,9.11,7.38,15.74,5.07a1.37,1.37,0,0,1,1.17.4c5.71,6.79,11.72,1.39,16.09-1,4.67-2.57,6.86-.81,10.09,1.2,3,1.89,5.53,5.22,10.23,1.88,1.45-1,6.75,1.22,8.64,3.4,5.85,6.77,9.46,7.16,15.7.32,1-1.08,1.87-2.24,2.93-3.52,3.39,6.65-.88,12.15-9.71,14-.91,4.33-1.38,8.59-2.77,12.54a17.28,17.28,0,0,1-4.94,7.6c-7,5.58-11.37,19.72-5.9,26,3.73,4.3,10.56,6,16.06,8.66,2.68,1.32,6.19,1.65,8.12,3.62,3.69,3.76,6.66,8.27,9.57,12.71.54.82-.64,2.75-1,4.17-1.19-.61-2.63-1-3.54-1.88-4.39-4.36-8.26-9.34-13.07-13.14-2.77-2.19-7.33-2-10.4-3.94-2.33-1.48-3.76-3.52-7.08-2.49-.81.25-3.21-2.13-3.65-3.66-1.37-4.79-3.61-10-2.78-14.56.89-4.88,4.24-9.77,7.68-13.62,6.52-7.29,8.3-15,3.44-23.38-1.12-1.91-4.29-4.38-5.83-4-6,1.57-10.43-.37-15.69-3-4-2-9.54-1.06-14.38-1s-9.72.84-14.59,1.12a8.11,8.11,0,0,1-3.78-.83c-5.18-2.47-10.3-5.07-15.45-7.6-.5-.25-1.5-.57-1.57-.45C1045.06,583.1,1035.88,579.25,1031.19,585.75Z" fill="#c69432"/>
        <path d="M1664.13,500.84c-2,.65-3.6,1.61-5.14,1.58-10.55-.2-18,4.47-24.5,12.77-3.28,4.22-9.33,6.22-14,9.47-2,1.4-4.43,3.15-5.09,5.25a64.29,64.29,0,0,0-2.66,14.4c-.11,1.43,1.83,4.08,3.2,4.35a15.32,15.32,0,0,0,8.22-.6c11.52-4.53,23.25-8.78,34.18-14.51,5-2.61,9.14-7.93,11.89-13,1.3-2.38-2.39-7-2.38-10.68,0-2.61,2.4-5.22,3.73-7.82,3,2.07,10.09-3.44,9.73,5.09l-1.67-1c-2.08,3-5.59,5.83-5.83,8.95-.26,3.37,2.53,7,3.29,8.79-6.32,4.91-11.57,9.76-17.54,13.43-6.52,4-13.69,6.95-20.6,10.32-2.88,1.41-6.06,2.37-8.67,4.16-4.44,3.06-8.55,4.7-14.3,3-6.21-1.79-14.34,4.67-17.79,10.18-3.07,4.91-4.73,8.62-1,13.74.82,1.12-.4,3.73-.83,6.72l-7.24-18.59c2.14-5.23,3.43-9.53,5.59-13.34a92.82,92.82,0,0,1,8.25-11.46c3.29-4.16,7.14-7.91,10.09-12.29,1-1.52.26-4.39,0-6.6-.59-4.32.87-5.79,5.28-7.66,6.43-2.73,11.8-8,17.51-12.36C1643.1,497.72,1655.72,492.29,1664.13,500.84Z" fill="#c69432"/>
        <path d="M393.06,721.17c-6.95-2.93-7.72-9-8-15.44-.11-2.38-.77-4.73-1.44-8.6-7,5.82-13.6,6-20.46,3.94-.2-.06-.49-.16-.62-.07-8.74,6-19.24.29-28.2,4.17s-17.49,8.1-26.2,12.22c-1.72.81-3.24,2.15-5,2.73-5.1,1.67-10.28,3.07-16.47,4.88-2.11-2.41-5.13-6.47-8.82-9.78-1.68-1.51-4.93-1.11-7-2.32-5.52-3.15-11.29-3.36-17.37-2.74-5,.51-8.18-1.77-8.61-7.12a6.67,6.67,0,0,1,.73-.89c8.67,5.2,19.32-2,27.74,4.43,2.14,1.64,4.89,3.13,6,5.37,2.82,5.8,6.68,7.43,12.24,4.58,2.6-1.33,5.62-1.8,8.26-3.06,6.9-3.29,13.71-6.76,20.47-10.32.49-.26.31-1.8.2-1,9-1.76,17.53-3.63,26.15-5a39.37,39.37,0,0,1,11.57-.21c10,1.41,19.32-1,26.48-7.35,4.41-3.93,6.94-10.5,9.05-16.34,1.85-5.15,2-10.92,2.84-16.42,1,2.53,2,5.07,3.07,7.56s2.67,3.91,5.1,1.21c-1.56,2.7-4.22,5.31-4.45,8.13-.56,6.64-2.14,11.78-6.94,17.25-3.43,3.9-2.78,11.85-2.92,18-.09,4.11,1.62,8.26,2.53,12.39Z" fill="#c69432"/>
        <path d="M1253.1,951.27c-.37-.5-1-1-1.08-1.51-1.16-7.21-2.24-14.44-3.36-21.65a46.41,46.41,0,0,1-.94-5c-.25-4.81-.41-9.69,4.34-10.09,1.1-3.22,1.65-5.33,2.52-7.29,2-4.56,4.14-9.05,6.59-14.35l-23.72-2.71c.34-3.48-.85-4.19-4.86-3.39s-8.72-.35-13.1-.57a11,11,0,0,0-3.76.34c-7.29,2.34-8,2-10.67-6.28,2.19-.64,4.34-1.69,6.55-1.85,6.24-.44,12.5-.54,18.75-.68,1,0,2.46.14,2.87.77,4,6.17,10.52,4.17,16.13,4.92a54.46,54.46,0,0,0,6.48,0c1.68-7.85,3-15.55-3.62-22.71-1.79-1.93-2.31-5.66-2.26-8.54.08-5.24,1-10.47,1.83-17.73,2.28,3,4.24,4.52,4.64,6.35.85,4,.43,8.2,1.4,12.11,1.35,5.48,2.44,11.47,5.52,15.95,4.76,6.93,5.23,12.9-.54,19.16a4.82,4.82,0,0,0-.6,4.05c3.16,9.47-2.35,17-6,24.59-3.57,7.37-5.3,14.08-2.5,22,1.49,4.23,1.49,9,2.16,13.51Z" fill="#c69432"/>
        <path d="M993.28,786.62c3.27-.59,5.4-.32,6.34-1.25,4.56-4.51,9-2.72,13.25,0,3.89,2.49,7.57,5.32,11.34,8a10,10,0,0,0,5.73,2.31l-3.69-5.06c5.7.25,9.48,1,10.61,6.12.73,3.29,1.39,4.68,5.05,2.69,1.8-1,4.53-.11,6.78-.45a13.8,13.8,0,0,0,4-1.75c3.38-1.75,6.59-4,10.16-5.11,1.2-.38,4.62,1.88,4.73,3.14.57,6.27,3.74,5.42,7.8,3.64a13.83,13.83,0,0,1,3.69-.5c-.32,7-.79,7.94-6.34,5.11-7.12-3.63-13.15,1-19.68.74-4.27-.19-8.74.52-12.76-.54-11-2.91-21.8-6.55-32.42-9.82l-11.05,10.86-12-10.56Z" fill="#c69432"/>
        <path d="M392.9,721.37c4.88.79,8.59,2.84,8.82,8.15l-6,2.11,3.1,2.22c1.78,1.56,3.62,3,5.31,4.7,3.81,3.68,7.45,7.53,11.32,11.14,6.37,5.94,7.26,9.8,3.62,17.7l4,3.27c.72,3.6-6.91,6.93-.45,9.37-1,2.38-2.9,4.71-3,7.1-.35,8.64-.17,17.3-.06,26a22,22,0,0,0,.89,5c1.79,7,1.38,7.55-6,7,2,9.36-5.58,5.73-10.72,8.51,1.58-3.83,2.51-6.07,3.43-8.31l.92.16V831c3.47-6.15,6.43-9.37,3-16-2.27-4.41.58-11.79,2-17.61.59-2.41,2-3.54.12-6.54-1.53-2.42-2.29-6.25.53-10.46,5-7.41,3.56-24.5-4.46-31-5.2-4.22-10.68-8.64-13-15.37-1.41-4.14-2.19-8.51-3.26-12.78Z" fill="#c69432"/>
        <path d="M985,813.35l-23,3.27c-2.85,6.56-5.27,7.16-12.64,1.85-1.19-.86-3-.89-4.06-1.87a87.69,87.69,0,0,1-5.86-6.85c2.63-2,5-4.83,7.93-5.72,9.54-2.88,19.31-5,29-7.47,3.17-.81,7.2.19,5.48,3.29C978.9,805.21,981.48,808.42,985,813.35Z" fill="#c69432"/>
        <path d="M435.7,870.84c-1.06,3-1.37,5.91-3,7.59-.84.89-3.92-.34-5.85-1.95l3.28-1.72c-2.84-4.08-1.63-5.6,5.95-6.45-5.8-12.34-17.1-18-27.43-25.58l7.73-8.53,1.19.14c-.6,2.82-1.19,5.65-1.93,9.13,4.06,1.07,7.9,2.67,11.8,2.86,2.17.1,4.45-2.16,6.69-3.36-1.61-2.69-2.82-5.78-5-7.94-1.45-1.46-4.21-1.62-7.89-2.88,5.52-3.42,9.68-1.58,11.68,1.38,3.76,5.57,6.34,12,9.2,18.1a3.66,3.66,0,0,1-.66,3.39c-5.47,4.59-4.62,9.87-1.41,15.82Z" fill="#c69432"/>
        <path d="M1187,362.32l1.73,3.72c.85-1.75,1.65-2.74,1.79-3.81.55-4,2.71-5.08,6.38-4,1.16.33,2.68,1,3.55.51,7.39-3.81,14.93.69,22.59-.67,8.56-1.53,17.61-.35,26.69-.35.45,4.9-3.81,3.44-6.53,3.8-8.18,1.07-16.39,2-24.58,2.95-.83.1-1.89.91-2.42.62-5.45-3-10.67-1.35-16.24-.12-3.2.7-5.72.27-8.64,3.27-2.32,2.37-8,2.66-11.94,2-7.64-1.3-13,2.76-18.66,6.39l-1.75-.85c1.36-3.44,2.71-6.89,3.56-9.07Z" fill="#c69432"/>
        <path d="M1410.37,662.2l-18.78-2.46c.18-3.26.37-6.75.6-11.15l4.1-3.11c-4.59-4.1-5.68-3.83-9.47,2.32l-9.68-4c-3.74,4.07-6.86,7.47-10.72,11.69-3.19-8.26,10.83-6.43,4.68-13.83,6.8-2.52,14.7,1.21,19.46-5.77,4.87,7.47,11.52,9.21,24.06,5C1408.13,648.3,1398.18,654.37,1410.37,662.2Z" fill="#c69432"/>
        <path d="M1209.54,713.36l-9.44,3.69c-3.08-5.72-7.07-12.13-10.11-19-2.92-6.58-12.88-13.28-20.59-13.83-5.74-.41-11.38-2.15-17.85-3.46,6.51-8,13-2.16,19.08-1.56,2.37.24,5-.05,7,.93,5.29,2.57,11.56,4.66,15.09,8.89,4.36,5.24,6,12.66,9.53,18.72C1203.71,710.18,1207,711.49,1209.54,713.36Z" fill="#c69432"/>
        <path d="M1875.8,864.88c-2.91-1.56-4.87-2.07-4.91-2.71-.45-6.7-6.56-13,.58-20.27,7.47-7.61,10.23-17.9,11.18-28.67.54-6.12,3.13-12.06,3.59-18.17.39-5.19-1-10.52-1.49-15.79-.18-2,0-4.1,0-6.15l2.56-.25c.15,1.78.35,3.56.46,5.35.17,2.87.14,5.77.48,8.62.25,2.12,2,4.6,1.29,6.22-4.75,11.51-.25,24.29-6.3,36C1877.88,839.39,1872.76,850.64,1875.8,864.88Z" fill="#c69432"/>
        <path d="M1212.64,969.45c.48,3.57,1.06,7.12,1.39,10.71.14,1.61.43,4-.46,4.79-10,8.54-3.56,19.76-4.91,29.65-.11.82,2.34,2.9,3.5,2.82,5.22-.35,9,1.27,11.81,5.84.65,1.08,2.92,1.16,4.33,1.66.48,3.46,1,7,1.48,10.82h5.86c0,1,.52,2.36.06,3a4.09,4.09,0,0,1-2.93,1.64,3.49,3.49,0,0,1-2.45-1.85c-4-8.39-12.46-11.89-19-17.52-3-2.6-9.43-2.37-8.38-8.33,1.53-8.62-2.92-18.22,4.8-26,1.92-1.94,1.28-6.39,1.88-9.67.51-2.8,1.12-5.59,1.69-8.39Z" fill="#c69432"/>
        <path d="M1454.11,690.19c-.46-1.38-.81-2.82-1.4-4.14-1.65-3.64-5.46-6.37-3.06-11.56.83-1.81-1.6-5.12-2.82-8.53l-10,7.42,6.26,5.29-4.6,3.91c-4.79-5.17-3.5-9.92-.69-15.34,2.37-4.57,3.1-10,5.1-14.75.82-2,3.06-3.33,5.72-6.06v9.14c8,4.65,9.8,10.89,6,19.67-.5,1.16.57,3.07,1.07,4.58,1.53,4.68.78,9.27-1.76,10.19Z" fill="#c69432"/>
        <path d="M1103.69,410.64l16.81-8.77c.38-.19,1.08-.26,1.14-.5,2.06-8.87,6.24-2.62,9.57-1.29.53-.24,1.18-.32,1.26-.59,3.44-10.71,11.53-13.73,21.81-13.64,2.08,0,4.18-1.44,7.69-2.75.62,4.44,1.38,9.93,2.15,15.43l-1.89.41a42.35,42.35,0,0,0-2.85-3.26c-6.87-6.43-19-4.86-23.18,3.6-1.75,3.55-3.19,3.1-6.46,3.46-4,.44-8,3.75-11.54,6.37C1111.92,413.73,1112.05,413.9,1103.69,410.64Z" fill="#c69432"/>
        <path d="M569.19,433.66c5.81-2.5,10.74-4.39,15.45-6.72,4.3-2.13,7.81-4.72,12.63.06,2.21,2.19,7.17,1.56,10.85,2.32a68.82,68.82,0,0,1,10.22,2.56c.87.33,1.65,3,1.23,4.07-.35.9-2.69,1.72-3.92,1.47-7.61-1.55-15.11-4.46-22.75-4.81-5.16-.23-10.63,2.65-15.69,4.77S569.14,438.09,569.19,433.66Z" fill="#c69432"/>
        <path d="M1383.24,662.1l-17.91,15.19-10.43-11.07c.78-1.58,2.58-3.69,2.79-5.94.44-4.9,3.53-5.14,6.82-4.25C1370.56,657.68,1376.46,659.87,1383.24,662.1Z" fill="#c69432"/>
        <path d="M842.81,454.41l-.71.71c-1.09.51-2.39,1.7-3.24,1.43-9.41-3-18.76-6.18-28.73-9.53-1.61-5.83,12.44-13.22-2.07-18.51,5.57-1.1,7.59-.2,7.61,3.9,0,4.89,2.74,6.47,6.47,8.38,4.3,2.19,8.05,5.47,11.76,8.09l10.74-.62Z" fill="#c69432"/>
        <path d="M1179,875.44l-2.23,3.55c6.92,0,13.77-.48,20.48.29,2.13.24,4.06,3.68,5.7,5.93.51.7-.23,2.31-.4,3.51-2.37-.41-5-.28-7.06-1.33-6.9-3.53-13.68-6-21.14-1.61a3.63,3.63,0,0,1-2.46.29,132.81,132.81,0,0,1-19.44-5.76C1160.5,875.87,1170,879.76,1179,875.44Z" fill="#c69432"/>
        <path d="M1001.3,277.08c4.31,3.52,1.72,7.63.49,11.19-1.45,4.21-1.33,7.4,1.19,11.37,2.77,4.36,3.52,10,6.13,14.48,3.17,5.48,4,12.39,11.33,15.55,4.55,2,3.32,9.19-1.42,13.83l.16.14c1.07-9.36-7.12-13.5-11.23-19.94-.64-1-1.81-1.74-2.18-2.8-2.88-8.3-6.66-16.48-8-25-.92-5.68,1.65-11.92,2.66-17.91C1000.69,277.63,1001,277.35,1001.3,277.08Z" fill="#c69432"/>
        <path d="M603.46,101.84l-11.15-3-.51,1.61c-2.41-3.82-4.81-7.65-7.36-11.71-11.49.12-13.72-2.12-14.66-15.49,3,1.85,5.74,4,8.83,5.26,1.93.81,4.46.06,6.61.51,1.6.34,4.4,2,4.33,2.19-2.41,6.56,4.44,7.81,6.7,11.55,1.82,3,5,5.18,7.58,7.72Z" fill="#c69432"/>
        <path d="M173.5,259.27l19.06-10.18-9.7-7.88c3.35-3.57,11,5.58,12.06-5.14l3.25,7.3-3.85,2.48,2.43,2.14c-4.46,3.91-8.64,7.62-12.87,11.28-2.38,2.05-4.75,4.14-7.31,6-.66.47-2.61.38-2.95-.13-3.94-6-7.85-12-8-18.76l10.36-.77Z" fill="#c69432"/>
        <path d="M627.58,108.91c9.76,4.57,21.78,4.78,29,15.28,2.3,3.36,9.32,3.12,12.81,6.12,6.34,5.46,13.28,7.49,21.42,7-6.83,2.21-12.61,3.48-19.74-1.17-11.73-7.64-25-12.87-37.35-19.62C631.07,115.05,629.59,111.49,627.58,108.91Z" fill="#c69432"/>
        <path d="M442.71,528.69c1.35-3.64.63-8.17,6.56-7.46.65.08,1.85-4.44,2.87-7,7.59.42,14.5-1.88,20.93-6.43,2.71-1.92,6.28-2.79,9.57-3.71,6.67-1.86,11.08-6.18,14.25-12.1,2.33-4.34,6.06-5.43,11.43-5.76-5.16,5.39-8.81,10.14-13.38,13.69s-10,6.23-15.31,8.88c-5.82,2.94-11.64,6.64-17.88,7.8C453.61,518.12,450.45,526.37,442.71,528.69Z" fill="#c69432"/>
        <path d="M527.32,141.43h.39c-5.89-.76-3.63-6.14-4-8.91s2.23-7,4.77-8.59c5-3.1,2.66-4-.84-5.47l5.89-9.78c1.13.71,3.55,1.72,3.45,2.25-.94,5-.52,10-.43,15,0,1.29-2.85,2.66.08,4.3a2.6,2.6,0,0,1-.43,1.78C533.32,135.21,530.3,138.31,527.32,141.43Z" fill="#c69432"/>
        <path d="M567.27,40.22c2.8,2.08,4.88,3.61,7,5.16,1.06.79,2.58,1.41,3,2.46.24.63-1.14,2.59-2,2.76-1.13.21-2.57-.62-3.73-1.27a34.52,34.52,0,0,1-3.59-2.64,8.32,8.32,0,0,0-.85.91c3.52,4.61,2.21,6.72-3.4,6.94-1.88.08-3.74.7-6.72,1.29-.86-5.17-1.7-10.28-2.58-15.61Z" fill="#c69432"/>
        <path d="M1883.85,580.74c-7,8-5,15.79-2.6,23.63,3.47,1.83,10.46-.59,9.1,7.49-9.1-.75-5.75,5.63-6.06,10.38-2.82-7.6-5-15.55-8.67-22.68-3-5.73-5.63-10.8-2-17.27Z" fill="#c69432"/>
        <path d="M212,801.06l-8.61-7c4.62-3.42,4.72-6.7,3.59-11.33-.86-3.55.74-8,2.16-11.74,2.08-5.46,5-10.61,8.06-17,2.39,7.5.85,12.6-3,17.45a12.36,12.36,0,0,0-2.86,6.83C211.19,785.47,211.71,792.72,212,801.06Z" fill="#c69432"/>
        <path d="M1088.89,776.16l15.11-5.48,1.31-29.06,1.87-.11c.35,1.71,1.06,3.44,1,5.13-.36,8.28.37,16.94-1.92,24.68-1.29,4.36-7.63,7.3-12,10.45-.21.16-3.37-3.78-5.16-5.81Z" fill="#c69432"/>
        <path d="M1019,343.5c-.31.76-1,1.6-.86,2.28,2.16,11,.09,20.47-7.4,25.49-.83,7.32-1.44,12.75-2.09,18.48h-5.18c2.34-8.49,1.68-16.93,8.1-24.2,3-3.41,2.33-10.2,3-15.49.39-3.12-.64-6.87,4.57-6.44Z" fill="#c69432"/>
        <path d="M246,523.51c.2-3.51,0-7.07.78-10.4.31-1.34,2.7-2.23,4.19-3.26s3.19-1.46,4.06-2.7c1.32-1.87,2-4.21,2.95-6.33L268,505.61Z" fill="#c69432"/>
        <path d="M550.1,80.57c1-3.9,1.88-7,2.72-10.17,7.56,2.21,8.08,1.8,10.72-6.32.4-1.22,2.64-3.09,3-2.9a28.22,28.22,0,0,1,4.25,3.48c-1.59,3.07-3.36,5.07-3.61,7.24-.6,5.13-2.5,7.85-8.17,7.41C556.16,79.09,553.26,80.08,550.1,80.57Z" fill="#c69432"/>
        <path d="M1146.48,887.8c-9.58,6.13-18.3,10.6-29.13,8,2.46-4.17,4.44-6.59,9.92-3.59,1.66.91,6.56-4.09,10-6.39l-.63-2.34Z" fill="#c69432"/>
        <path d="M548.88,85.36l-11,11.07c-5-3.36-5.77-6.09-1.88-10.28,2.74-3,4.36-7,7.52-12.2-.56,3.57-1.6,5.87-1,7.51C543.12,82.85,545.62,83.46,548.88,85.36Z" fill="#c69432"/>
        <path d="M453.26,781.07c4.13-.8,8.33-1.34,12.36-2.49,3.73-1.07,7.27-2.79,11.9-4.62-.55,3-.44,6.66-2,9.24-.73,1.2-4.74.36-7.26.53s-5.34.75-8,.59a47.18,47.18,0,0,1-7.42-1.58C453,782.19,453.13,781.63,453.26,781.07Z" fill="#c69432"/>
        <path d="M1020.5,582.42c2.55,9.68-3.19,13.94-8.07,17.56-2.91,2.16-7.86,1.57-11.89,2.22l-.82-3.16c4.17-1.78,8.4-3.43,12.46-5.42a10,10,0,0,0,3.17-3.31C1016.91,588.14,1018.29,585.84,1020.5,582.42Z" fill="#c69432"/>
        <path d="M1168.88,574.26c1.3-1.6,3.3-3,3.79-4.84,2.65-9.91,6.48-11.74,14.77-6.67.65.4,1.6.32,3,.56-4.67,2.1-9,3.67-12.88,6-1.5.9-2,3.54-3.12,5.86l-5.73-1Z" fill="#c69432"/>
        <path d="M542.91,430.73c.36,2.76,2,6.4.83,8.11-3.3,4.81-2.54,13.17-12.78,13.83a57.26,57.26,0,0,0,3.92-4.31c2.15-3,5-5.86,5.94-9.24.55-1.91-1.57-5.08-3.26-7-1.92-2.21-4.67-3.73-7.11-5.47-2.85-2-5.75-4-8-5.51,5.16-2.05,9.13,1.92,13.36,6,1.86,1.79,4.75,2.51,7.17,3.71Z" fill="#c69432"/>
        <path d="M1447.51,638.14c.35,2.06.7,4.12,1.18,7l-5.17-2.8c-2.25,2.72-2.56,8.21-8.26,5.37-3.14-1.56-7.52-1.52-6.46-5.84,3.67-.63,6.72-1.13,9.75-1.69s6.12-1.22,9.18-1.84Z" fill="#c69432"/>
        <path d="M628.74,119.47c-10.55,4.71-28.24-4.06-34.62-16.91,3.49,2.74,7.42,5.09,10.35,8.34,3.7,4.13,7.43,6.64,13.32,6.13C620.86,116.77,624.09,118.36,628.74,119.47Z" fill="#c69432"/>
        <path d="M517.83,108.76c-.34,4.47-2.81,6.82-7.18,7.67-7.45,1.43-9.21,3.23-12.23,10.81-.57-2.55-2.42-5.95-1.42-7.45,1.69-2.52,2.84-7,8-5.79,1.57.35,3.62-1.88,5.56-2.65,2.42-1,5-1.63,7.45-2.43Z" fill="#c69432"/>
        <path d="M1001.3,277.08c-.3.27-.61.55-.91.86.12-2.09-.53-4.75.51-6.18,4.56-6.26,2.83-12.23.3-18.52a18.77,18.77,0,0,1-1.22-10.36c.65,9.46,12.92,17.26,4,28.11C1002.44,272.9,1007.9,277.68,1001.3,277.08Z" fill="#c69432"/>
        <path d="M310.59,537c-2.23,2.17-4.61,4.21-6.65,6.54-2.33,2.66-4.37,5.57-6.05,7.75-2.85.93-5.25,1.76-7.69,2.48a13.25,13.25,0,0,1-3.47.57c-.29,0-.94-1.36-.83-1.47a26.11,26.11,0,0,1,2.71-2.06c5.13-3.69,10.3-7.33,15.37-11.1a62.25,62.25,0,0,0,4.89-4.46C309.44,535.79,310,536.37,310.59,537Z" fill="#c69432"/>
        <path d="M885.9,869.83c-4.4-5.33-7.82-10.94-6.69-18.37.65-4.26.75-8.6,1.07-12.61a11.63,11.63,0,0,1,2.87,14.09c-.66,1.2-1.66,2.73-1.39,3.83,1.1,4.45,2.64,8.8,4,13.19Z" fill="#c69432"/>
        <path d="M499.52,133.29c7.38,7.53,11.05-3.17,17.38-3-.21,1-.08,2.66-.68,3q-7.07,3.86-14.4,7.21c-1.43.65-3.19.55-4.8.79a38.07,38.07,0,0,1,.5-5.77C497.73,134.63,498.89,134,499.52,133.29Z" fill="#c69432"/>
        <path d="M116.83,379.21q-5.52-11.5-11.06-23c10.13,4.79,9.72,14.42,13.65,22.05Z" fill="#c69432"/>
        <path d="M543,430.82c10-4.7,15.43-3.9,21.16,3.65-7.51-.82-14.88,1.32-21.23-3.71Z" fill="#c69432"/>
        <path d="M1261.5,832.36c-6.3-4.23-6.35-6.15-1.22-10,1.82-1.37,2.93-3.7,4.41-5.65C1268.67,819,1268.67,819,1261.5,832.36Z" fill="#c69432"/>
        <path d="M34.44,494.73l-1.27-3.49-10.33,3.31L22,492.77,36.09,482l.66,12.61Z" fill="#c69432"/>
        <path d="M518,108.92c-.68-1.19-1.36-2.39-2.48-4.33l8.67.83c.59-2.55,1-4.51,1.5-6.46l1.48.24c-.09,2-.19,3.91-.28,5.86.83.73,1.66,1.46,2.48,2.2l3.61-6.21,5.8,4.71L522,108.32l-.08-.2-4.1.64Z" fill="#c69432"/>
        <path d="M144,322.41c-2.9-6.73-1.51-11.93,3.84-15.2l3.13,9.5Z" fill="#c69432"/>
        <path d="M520.83,62.48c-7.05-5.49-7.34-11.69-2.29-18.4l5.35,2.69c-1.87,2.79-4.25,4.89-4.65,7.32C518.81,56.73,520.22,59.67,520.83,62.48Z" fill="#c69432"/>
        <path d="M507.05,902.89c-1-2-1.91-3.88-2.87-5.84l7.28-3.58c-.44,5.62-.83,10.73-1.25,16.2l-7.91-4Z" fill="#c69432"/>
        <path d="M1220,565.38a28.83,28.83,0,0,1,4.13-.32c4.13.25,8.26.65,13.21,1.05.1.26.87,2.23,1.91,4.92-7-.73-14.59,1.86-19.44-5.85Z" fill="#c69432"/>
        <path d="M1116.16,891.31c-2.26,5.63-7.91,3.71-11.43,5.8s-5.9,5.89-8.78,8.94l-1.66-1.25c2.59-3.53,4.5-8.18,8-10.29C1106,892.24,1111.13,892.35,1116.16,891.31Z" fill="#c69432"/>
        <path d="M1766.94,19.09c9.47,4.85,18,7.44,27.47,5.2.67-.16,1.72,1.3,2.6,2-.75.89-1.68,2.66-2.21,2.55-8-1.7-16-3.55-24-5.64C1769.64,22.89,1768.82,21.15,1766.94,19.09Z" fill="#c69432"/>
        <path d="M470,869.57,463.78,878l2,4.74-12.34-4.62c3.2-2.08,5.09-3.55,7.19-4.61C463.2,872.22,466,871.24,470,869.57Z" fill="#c69432"/>
        <path d="M799.44,425.79c-1.68,3-2.57,4.56-4.31,7.63-2.48-2.42-4.89-4.15-6.32-6.48-.51-.83,1.75-4.6,2.06-4.51A70.26,70.26,0,0,1,799.44,425.79Z" fill="#c69432"/>
        <path d="M1219.81,565.18c-.3,1.26-.19,2.94-1,3.7-1.77,1.72-4,3-6.85,5-2.2-1.61-8.42-.68-9.13-5.92l17.16-2.6Z" fill="#c69432"/>
        <path d="M121.38,383.19c-2.15,6.87,1.77,10.17,6.77,12.75,4.51,2.33,5.1,6,4.75,9.74-4.43-4.32-9.19-8.13-12.77-12.84-1.7-2.23-1.13-6.17-1.58-9.34Z" fill="#c69432"/>
        <path d="M32.44,447.14l-13,7.64L19,447.83C23,448.29,26.69,441,32.44,447.14Z" fill="#c69432"/>
        <path d="M530.94,68.49V84.82l-5.06-2.93c-.22-3.7-1.16-6.82-.3-9.3C526.22,70.74,529.22,69.72,530.94,68.49Z" fill="#c69432"/>
        <path d="M1749.38,21.11c-1.46-4.42-2.92-8.83-4.64-14a35,35,0,0,1,4.39-.77c1.35,4.57,2.44,9.22,3.56,13.86Z" fill="#c69432"/>
        <path d="M1005.11,425.5c-4.37-7.23-1.13-14.45-.05-22.69l2.22,1.28v21.56Z" fill="#c69432"/>
        <path d="M461.06,133.61c1.12-.12,3.87-1,4.36-.34,1,1.39.71,3.65,1,6l8.81,3.49c-2.55,1-4.54,1.93-4.68,1.72C468,140.37,458.7,142.75,461.06,133.61Z" fill="#c69432"/>
        <path d="M484.89,141.87v9.43c-1.75-.65-4.15-.79-5.13-2C476.74,145.39,479.6,143.38,484.89,141.87Z" fill="#c69432"/>
        <path d="M590,76.51c.45-2.29.8-4.06.8-4.05l11.66-1.88C603.89,74.56,600.69,76.88,590,76.51Z" fill="#c69432"/>
        <path d="M180,545.15c-6.85,1.62-17.75-5.47-19.25-11Z" fill="#c69432"/>
        <path d="M1101.39,126.51c2.54-1.81,3.84-2.73,4.12-2.94,3.8,2.37,7.24,4.53,10.8,6.74C1111,135.25,1107.45,127.64,1101.39,126.51Z" fill="#c69432"/>
        <path d="M1867.73,17.72c-1.32,7.37-3.46,14.29-10.86,18.29l11-18.14Z" fill="#c69432"/>
        <path d="M525.93,0l-.59,5.78-6.09.34c-.35-3.06-.27-5,.44-6.12Z" fill="#c69432"/>
        <path d="M581.63,28.56l12,9-7.29,2.8Z" fill="#c69432"/>
        <path d="M504.06,28.56l-1.05,14-4.59-2.44c1.18-4,2.3-7.88,3.43-11.71Z" fill="#c69432"/>
        <path d="M518.21,927.07h-9.16c.34-2.28.85-5.63,1.49-9.86Z" fill="#c69432"/>
        <path d="M962.69,170.32l10.84,18.25-1.6.92q-5.37-9.18-10.76-18.34Z" fill="#c69432"/>
        <path d="M610.37,722.15c2.19-.66,4.61-2.2,6.51-1.7,1.63.42,2.65,3.16,3,6l-8.72-2.58C610.9,723.27,610.63,722.71,610.37,722.15Z" fill="#c69432"/>
        <path d="M491.56,128l6.43,1.24-6.86,8.64-2.1-1.26C489.83,133.87,490.62,131.16,491.56,128Z" fill="#c69432"/>
        <path d="M1089.09,776l-14-2.25c3.41-5.81,9.53-4.5,13.83,2.46Z" fill="#c69432"/>
        <path d="M22.21,429.93c3.71,2.65,8.19,5,2.86,10.5Q23.65,435.18,22.21,429.93Z" fill="#c69432"/>
        <path d="M19.47,499.17l-4.25-6.73-3.64,8.28c-.62-2.79-1.67-5.36-1.19-5.69,1.61-1.1,4.1-2.33,5.64-1.78,2,.74,3.49,3.09,5.19,4.75Z" fill="#c69432"/>
        <path d="M782.88,977.07c2.28,2.66,4.66,4.39,5.44,6.67.57,1.65-1,4-2,7.31C785.09,986,784.23,982.53,782.88,977.07Z" fill="#c69432"/>
        <path d="M1858.71,43.25l-2.08,18.93-1.78-.2q1-9.46,2.05-18.93Z" fill="#c69432"/>
        <path d="M474.66,121.1c6.44-.5,7.08.45,4.94,8.6C477.74,126.45,476.27,123.9,474.66,121.1Z" fill="#c69432"/>
        <path d="M239.09,379.4l-9.5,1.33c.86-8.36,6-2.75,8.87-4.17Z" fill="#c69432"/>
        <path d="M665.42,898.74l-2.87,11.9-5.32-.75Z" fill="#c69432"/>
        <path d="M126.68,908.87l-5.35-2.56c.45-.86.61-1.54,1-1.89,4.64-3.76,10-6.91,13.83-11.33,5.89-6.73,4.62-12.51-1.87-18.51-5.27-4.87-9.74-10.61-15-15.53-2.2-2.08-5.38-3.21-8.23-4.51-5.09-2.32-9.87-4.47-16.1-4.26s-12.49-2.95-18.75-4.64c.22-1.09.43-2.18.65-3.28,6.75.68,13.5,1.33,20.25,2,1.47.15,3,.89,4.38.66,9-1.52,15.21,2.63,20.66,9.21s11.43,12.92,17.15,19.37a11.76,11.76,0,0,1,2.26,3c2.39,5.56,6.46,6.3,10.55,1.82,9.46-10.4,12.58-10.64,24-1.3-1.77,1.06-3.22,2.56-4.85,2.79-5.77.83-10.39,5.87-16.83,4.43-1-.21-2.38,1.63-3.56,2.56-5.15,4-10.47,7.9-15.39,12.23C132.36,901.93,129.78,905.41,126.68,908.87Z" fill="#c69432"/>
        <path d="M138.59,1010.8c3.21,3.35,2.06,6.73-.83,11.21-5.41,8.41-9.56,17.62-14.49,26.35-1,1.8-3.14,3-6.17,5.71,0-4.39-.58-7,.1-9.32,2.67-9,7-17.34,13.89-23.81,4.9-4.62,2.65-8.25-.59-12.54,5.42-2.77,8.36-6.25,2.25-12l2.18-1c2.37,2,6,3.53,6.75,6C142.39,1003.66,140,1006.86,138.59,1010.8Z" fill="#c69432"/>
        <path d="M100.7,918.89c1.65-.52,3.88-.54,4.85-1.66,2.06-2.37,3-5.82,5.31-7.86,1.76-1.57,4.84-1.68,7.33-2.44.31.61.61,1.23.92,1.85a48.51,48.51,0,0,1-3.88,5.64c-6.94,7.63-8.23,16-4.33,25.43,1.56,3.78,2.15,8,3.17,11.95l-3,.77c-1.8-5-3.93-9.87-5.3-15-1-3.88-5.22-7.73-.75-12.32.4-.41-2.73-4.26-4.22-6.52Z" fill="#c69432"/>
        <path d="M131.15,1049.76c5.21-7.56,15.41-8.27,21.54,1.58.76,1.24-.82,4.4-2,6.19-.56.84-4,.93-4.13.67-2.42-7.31-9.36-5.76-14.51-7.65C131.68,1050.42,131.43,1050,131.15,1049.76Z" fill="#c69432"/>
        <path d="M3.4,845A10,10,0,0,0,0,846.79v-2.53A24.4,24.4,0,0,1,3.4,845Z" fill="#c69432"/>
        <path d="M132.28,994.6c-2.14-2-5-3.62-6.27-6.06-2.89-5.41-1.8-15.38.82-17.78,2,7.33,4.08,15,6.17,22.58Z" fill="#c69432"/>
        <path d="M7.35,668.73c-2,5.16-4,10.37-6.56,16.82-.24-.42-.51-.88-.79-1.34v-6.16C1.33,674,.32,668.08,7.35,668.73Z" fill="#c69432"/>
        <path d="M100.84,918.77H80.1l0-1.81c6.89-1.83,13.69.89,20.55,1.94Z" fill="#c69432"/>
        <path d="M62.71,722.61c-1.68,3.87-2.6,6-4.17,9.58-2.25-2.52-4-4.45-6.66-7.44Z" fill="#c69432"/>
        <path d="M32.81,859.94c1.47,7.59-2,12.36-8,16.92Z" fill="#c69432"/>
        <path d="M232.72,1022.56l6.23,11-8.54-2C231,1029.14,231.67,1026.69,232.72,1022.56Z" fill="#c69432"/>
        <path d="M7.7,719.11c0,5.73-1.73,9.62-7.7,8.8v-2.23Z" fill="#c69432"/>
        <path d="M59.57,751.67l-8.31,6.57c1.08-4.16.9-9.55,6.71-8.74Z" fill="#c69432"/>
        <path d="M121.62,966l-7.06-11.25,4.29-1.27c1.36,4.27,2.64,8.24,3.91,12.21Z" fill="#c69432"/>
        <path d="M14.49,728.13l1.28-6.87-1.72-1.47,6.39.41q-2.42,4.56-4.84,9.11Z" fill="#c69432"/>
        <path d="M13.06,1067.66l-4.38-15.87,1.85-.53,4.41,15.83Z" fill="#c69432"/>
        <path d="M77,974.44l6-9.68c2.09,6-.42,8.75-4.49,10.75Z" fill="#c69432"/>
        <path d="M41.14,836.27c.19-3.29.39-6.58.58-9.87l1.66.27,3.77,6.72-6.19,3Z" fill="#c69432"/>
        <path d="M1285.41,3,1271,12.31l-1.65-2.52,14.8-8.66Z" fill="#c69432"/>
        <path d="M30.17,53.86l15.9,4.49C43.17,62.21,42.59,62.12,30.17,53.86Z" fill="#c69432"/>
        <path d="M287.72,124.5l2.57-16.31,2.07.3q-.9,8.17-1.79,16.35Z" fill="#c69432"/>
        <path d="M268,113.46c.39,5.56.66,9.28.93,13.09-6.68,1.62-2.76-5.36-4.61-8C264,118.11,266.42,115.65,268,113.46Z" fill="#c69432"/>
        <path d="M97.58,253.14c-1.39,1.65-2.6,4.47-4.2,4.72-4.13.63-8.36,0-10.7-5.25l15.06.69Z" fill="#c69432"/>
      </g>
    </g>
  </g>
</svg>
